<?xml version="1.0" encoding="UTF-8" standalone="no"?>
<!-- Created with Inkscape (http://www.inkscape.org/) -->

<svg
   width="433.26501mm"
   height="250mm"
   viewBox="0 0 433.26501 250"
   version="1.1"
   id="svg5"
   inkscape:version="1.3 (0e150ed, 2023-07-21)"
   sodipodi:docname="bayonet_loot.svg"
   xml:space="preserve"
   xmlns:inkscape="http://www.inkscape.org/namespaces/inkscape"
   xmlns:sodipodi="http://sodipodi.sourceforge.net/DTD/sodipodi-0.dtd"
   xmlns="http://www.w3.org/2000/svg"
   xmlns:svg="http://www.w3.org/2000/svg"><sodipodi:namedview
     id="namedview7"
     pagecolor="#ffffff"
     bordercolor="#666666"
     borderopacity="1.0"
     inkscape:pageshadow="2"
     inkscape:pageopacity="0.0"
     inkscape:pagecheckerboard="0"
     inkscape:document-units="mm"
     showgrid="false"
     inkscape:zoom="0.20826771"
     inkscape:cx="729.82989"
     inkscape:cy="653.00569"
     inkscape:window-width="1312"
     inkscape:window-height="719"
     inkscape:window-x="0"
     inkscape:window-y="25"
     inkscape:window-maximized="0"
     inkscape:current-layer="layer1"
     inkscape:showpageshadow="2"
     inkscape:deskcolor="#d1d1d1" /><defs
     id="defs2" /><g
     inkscape:label="Layer 1"
     inkscape:groupmode="layer"
     id="layer1"><g
       id="g3"><path
         id="path2-8-8-4"
         style="color:#000000;fill:#333333;stroke-linejoin:round;-inkscape-stroke:none"
         d="m 199.46744,86.840487 a 15.0015,15.0015 0 0 0 -9.83041,4.30051 H 174.99865 A 15.0015,15.0015 0 0 0 160.0006,106.33852 l 0.52348,40.00014 a 15.0015,15.0015 0 0 0 14.9996,14.80272 h 31.00999 a 15.0015,15.0015 0 0 0 5.57796,1.99988 h 88.51191 c 44.73729,0.48957 86.61474,-8.84111 125.15205,-31.1211 A 15.0015,15.0015 0 0 0 420.60381,104.2172 L 318.98469,88.188207 a 15.0015,15.0015 0 0 0 -13.20281,4.47828 l 1.45107,-1.52549 h -83.41041 a 15.0015,15.0015 0 0 0 -9.79268,-4.30051 z m 28.34349,10.45104 c 0.7622,1.58247 1.21476,3.233643 1.21904,4.497923 a 15.0015,15.0015 0 0 0 -1.21904,-4.497923 z m -28.34401,4.549593 h 14.5619 c 0.01,2.81743 2.10583,4.301 4.44366,4.3 h 95.19161 l 2.98328,-3.13573 101.6186,16.02848 c -36.06859,20.85272 -74.88974,29.57335 -117.48017,29.10727 h -88.67624 c -1.19838,-0.9869 -2.01715,-2.0469 -3.64784,-2.0004 h -32.93959 l -0.52452,-39.99962 h 20.26647 c 2.461,-0.26065 4.04512,-1.87529 4.20284,-4.3 z" /><path
         id="rect1-8-7"
         style="fill:none;fill-opacity:1;stroke:#333333;stroke-width:30;stroke-linecap:round;stroke-linejoin:round;stroke-dasharray:none"
         d="m 172.8529,74.99995 v 29.99972 h -15.88275 l -0.99942,2.50011 h -5.47099 l -0.99993,-2.50011 h -16.0011 l -0.99942,2.50011 h -4.99969 l -0.99994,-2.50011 h -16.00057 l -0.99943,2.50011 h -5.00021 l -0.99994,-2.50011 H 87.49894 l -0.99942,2.50011 H 81.4993 l -0.99993,-2.50011 H 64.49879 l -0.99942,2.50011 h -5.00021 l -0.99994,-2.50011 H 43.36365 l -3.17552,-2.5001 H 18.17552 L 15,104.99967 v 40.00015 l 3.17552,2.49958 v 5.2e-4 h 22.01261 v -5.2e-4 l 3.17552,-2.49958 h 14.13557 l 0.99994,-2.50011 h 5.00021 l 0.99942,2.50011 h 16.00058 l 0.99993,-2.50011 h 5.00022 l 0.99942,2.50011 h 16.00057 l 0.99994,-2.50011 h 5.00021 l 0.99943,2.50011 h 16.00057 l 0.99994,-2.50011 h 4.99969 l 0.99942,2.50011 h 16.0011 l 0.99993,-2.50011 h 5.47099 l 0.99942,2.50011 h 15.88275 v 30.00023 h 8.00003 V 74.99995 Z" /></g><g
       id="g2"><path
         id="rect1-8"
         style="fill:#c7a588;fill-opacity:1;stroke:#333333;stroke-width:7;stroke-linecap:round;stroke-linejoin:round;stroke-dasharray:none"
         d="m 18.393327,102.49982 -3.175517,2.50011 v 40.00014 l 3.175517,2.49959 v 5.2e-4 h 22.01261 v -5.2e-4 l 3.175517,-2.49959 h 14.135614 l 0.999896,-2.5001 h 5.000212 l 0.999509,2.5001 h 16.000533 l 0.999895,-2.5001 h 5.00021 l 0.99951,2.5001 h 16.000517 l 0.9999,-2.5001 h 5.00022 l 0.99951,2.5001 h 16.00052 l 0.9999,-2.5001 h 4.9997 l 0.99951,2.5001 h 16.00104 l 0.9999,-2.5001 h 5.47098 l 0.99951,2.5001 h 18.33626 v -40.00014 h -18.33626 l -0.99951,2.50011 h -5.47098 l -0.9999,-2.50011 h -16.00104 l -0.99951,2.50011 h -4.9997 l -0.9999,-2.50011 h -16.00052 l -0.99951,2.50011 h -5.00022 l -0.9999,-2.50011 H 87.716833 l -0.99951,2.50011 h -5.00021 l -0.999895,-2.50011 H 64.716685 l -0.999509,2.50011 h -5.000212 l -0.999896,-2.50011 H 43.581454 l -3.175517,-2.50011 z"
         sodipodi:nodetypes="ccccccccccccccccccccccccccccccccccccccccccccccccccccc" /><path
         id="path1-0"
         style="fill:none;fill-opacity:0.0509804;stroke:#333333;stroke-width:7;stroke-linecap:round;stroke-linejoin:round;stroke-dasharray:none;stroke-opacity:0.05"
         d="m 43.581454,104.99993 v 4.9997 h 14.135571 l 0.999939,2.5001 v 25.00054 l -0.999939,2.50011 H 43.581454 v 4.99969 h 14.135571 l 0.999939,-2.5001 h 5.000212 l 0.999422,2.5001 h 16.000574 l 0.999941,-2.5001 h 5.00021 l 0.99942,2.5001 h 16.000577 l 0.99993,-2.5001 h 5.00022 l 0.99942,2.5001 h 16.00057 l 0.99994,-2.5001 h 4.9997 l 0.99942,2.5001 h 16.00109 l 0.99994,-2.5001 h 5.47098 l 0.99942,2.5001 h 18.33635 v -4.99969 h -18.33635 l -0.99942,-2.50011 h -0.23513 v -25.00054 h 0.23513 l 0.99942,-2.5001 h 18.33635 v -4.9997 h -18.33635 l -0.99942,2.50011 h -5.47098 l -0.99994,-2.50011 h -16.00109 l -0.99942,2.50011 h -4.9997 l -0.99994,-2.50011 h -16.00057 l -0.99942,2.50011 h -5.00022 l -0.99993,-2.50011 H 87.716743 l -0.99942,2.50011 h -5.00021 l -0.999941,-2.50011 H 64.716598 l -0.999422,2.50011 h -5.000212 l -0.999939,-2.50011 z m 21.135144,4.9997 h 16.000574 l 0.999941,2.5001 v 25.00054 l -0.999941,2.50011 H 64.716598 l -0.999422,-2.50011 v -25.00054 z m 23.000145,0 h 16.000577 l 0.99993,2.5001 v 25.00054 l -0.99993,2.50011 H 87.716743 l -0.99942,-2.50011 v -25.00054 z m 23.000147,0 h 16.00057 l 0.99994,2.5001 h 0.26252 v 25.00054 h -0.26252 l -0.99994,2.50011 h -16.00057 l -0.99942,-2.50011 v -25.00054 z m 22.99963,0 h 16.00109 l 0.99994,2.5001 h 0.23512 v 25.00054 h -0.23512 l -0.99994,2.50011 h -16.00109 l -0.99942,-2.50011 h 0.26303 v -25.00054 h -0.26303 z" /><path
         style="fill:#a98e77;fill-opacity:1;stroke:#333333;stroke-width:7;stroke-linecap:butt;stroke-linejoin:bevel;stroke-dasharray:none;stroke-opacity:1"
         d="m 43.581454,145.00031 v -40.00013 l -3.175519,-2.50009 H 18.393327 l -3.175518,2.50009 v 40.00013 l 3.175518,2.4996 h 22.012608 z"
         id="path3-2" /><path
         id="path2-8"
         style="fill:#7d7d7d;fill-opacity:1;stroke:#333333;stroke-width:7;stroke-linecap:butt;stroke-linejoin:miter;stroke-dasharray:none;stroke-opacity:1"
         d="m 199.6871,100.70001 c -0.15772,2.42471 -1.74183,4.03935 -4.20284,4.3 H 175.2178 l 0.52451,39.99995 h 32.93959 c 1.63069,-0.0465 2.44946,1.01349 3.64784,2.00039 h 88.67624 c 42.59047,0.46608 81.41154,-8.25453 117.48017,-29.10727 l -101.6186,-16.0288 -2.98328,3.13573 h -95.19161 c -2.33783,10e-4 -4.43411,-1.48257 -4.44365,-4.3 z m 122.28382,12.13926 h 7.77524 c 3.17257,0 5.72678,2.5537 5.72678,5.72627 0,3.17257 -2.55421,5.72678 -5.72678,5.72678 h -7.77524 c -3.17257,0 -5.72678,-2.55421 -5.72678,-5.72678 0,-3.17257 2.55421,-5.72627 5.72678,-5.72627 z"
         sodipodi:nodetypes="cccccccccccccsssssss" /><path
         style="fill:#333333;fill-opacity:0.1;stroke:#000000;stroke-width:0;stroke-linecap:butt;stroke-linejoin:miter;stroke-dasharray:none;stroke-opacity:1"
         d="m 205.77586,131.46606 -0.28649,13.53404 6.84038,2.00002 118.99173,-1.3217 43.92827,-8.8355 37.03598,-15.49863 -15.0827,-7.47847 -1.54681,1.50661 c -30.03457,18.96942 -126.4144,15.77859 -189.88036,16.09363 z"
         id="path4-3"
         sodipodi:nodetypes="ccccccccc" /><rect
         style="fill:#333333;fill-opacity:0.101961;stroke:#333333;stroke-width:0;stroke-linecap:round;stroke-linejoin:round;stroke-dasharray:none;stroke-opacity:1"
         id="rect4-9"
         width="80"
         height="10"
         x="205.48936"
         y="112.8"
         ry="5" /><rect
         style="fill:#333333;fill-opacity:1;stroke:#333333;stroke-width:3;stroke-linecap:round;stroke-linejoin:round;stroke-dasharray:none;stroke-opacity:1"
         id="rect2-0"
         width="8"
         height="100"
         x="173.07097"
         y="74.999992" /><path
         style="fill:none;fill-opacity:0.05;stroke:#333333;stroke-width:7;stroke-linecap:butt;stroke-linejoin:round;stroke-dasharray:none;stroke-opacity:0.05"
         d="m 15.217809,105.00019 3.175518,-2.5001 h 22.012608 l 3.175518,2.5001 m -28.363644,0 v 4.99976 l 3.175519,-2.5001 h 22.012607 l 3.175518,2.5001 v -4.99976"
         id="path5-5"
         sodipodi:nodetypes="cccccccc" /><path
         style="fill:none;fill-opacity:0.05;stroke:#333333;stroke-width:7;stroke-linecap:butt;stroke-linejoin:round;stroke-dasharray:none;stroke-opacity:0.05"
         d="m 15.217809,144.99981 3.175518,2.5001 h 22.012608 l 3.175518,-2.5001 m -28.363644,0 v -4.99976 l 3.175518,2.5001 h 22.012608 l 3.175518,-2.5001 v 4.99976"
         id="path5-6-2"
         sodipodi:nodetypes="cccccccc" /></g></g></svg>
