<?xml version="1.0" encoding="UTF-8" standalone="no"?>
<!-- Created with Inkscape (http://www.inkscape.org/) -->

<svg
   width="169.407mm"
   height="250mm"
   viewBox="0 0 169.40699 250"
   version="1.1"
   id="svg5"
   inkscape:version="1.3 (0e150ed, 2023-07-21)"
   sodipodi:docname="frag_loot.svg"
   xml:space="preserve"
   xmlns:inkscape="http://www.inkscape.org/namespaces/inkscape"
   xmlns:sodipodi="http://sodipodi.sourceforge.net/DTD/sodipodi-0.dtd"
   xmlns="http://www.w3.org/2000/svg"
   xmlns:svg="http://www.w3.org/2000/svg"><sodipodi:namedview
     id="namedview7"
     pagecolor="#ffffff"
     bordercolor="#666666"
     borderopacity="1.0"
     inkscape:pageshadow="2"
     inkscape:pageopacity="0.0"
     inkscape:pagecheckerboard="0"
     inkscape:document-units="mm"
     showgrid="false"
     inkscape:zoom="0.31875974"
     inkscape:cx="229.01261"
     inkscape:cy="229.01261"
     inkscape:window-width="1440"
     inkscape:window-height="763"
     inkscape:window-x="0"
     inkscape:window-y="25"
     inkscape:window-maximized="1"
     inkscape:current-layer="layer1"
     inkscape:showpageshadow="2"
     inkscape:deskcolor="#d1d1d1"
     showguides="false" /><defs
     id="defs2"><rect
       x="-298.08072"
       y="49.680122"
       width="586.22546"
       height="308.01675"
       id="rect5" /><rect
       x="94.752312"
       y="83.438599"
       width="466.69046"
       height="236.17366"
       id="rect9" /><clipPath
       clipPathUnits="userSpaceOnUse"
       id="clipPath1"><rect
         style="fill:#7d7d7d;fill-opacity:1;stroke:#333333;stroke-width:7;stroke-linecap:round;stroke-linejoin:round;stroke-dasharray:none;stroke-opacity:1"
         id="rect4"
         width="30.000002"
         height="40"
         x="102.57823"
         y="23"
         ry="13.096207" /></clipPath><clipPath
       clipPathUnits="userSpaceOnUse"
       id="clipPath1-6"><rect
         style="fill:#7d7d7d;fill-opacity:1;stroke:#333333;stroke-width:7;stroke-linecap:round;stroke-linejoin:round;stroke-dasharray:none;stroke-opacity:1"
         id="rect4-9"
         width="30.000002"
         height="40"
         x="102.57823"
         y="23"
         ry="13.096207" /></clipPath><clipPath
       clipPathUnits="userSpaceOnUse"
       id="clipPath2"><path
         id="path2"
         style="fill:#979797;fill-opacity:1;stroke:#333333;stroke-width:0;stroke-linecap:round;stroke-linejoin:round;stroke-dasharray:none;stroke-opacity:0.1"
         d="M 181.63232,53.749837 V 183.75014 c -3e-5,6.90356 15.66998,12.50001 34.99994,12.50002 19.33016,9e-5 35.00047,-5.59639 35.00044,-12.50002 V 53.749837 c 2e-5,6.903622 -15.67029,12.500102 -35.00044,12.500012 -19.32996,-1.1e-5 -34.99996,-5.596451 -34.99994,-12.500012 z"
         sodipodi:nodetypes="ccccccc" /></clipPath><filter
       id="mask-powermask-path-effect3_inverse"
       inkscape:label="filtermask-powermask-path-effect3"
       style="color-interpolation-filters:sRGB"
       height="100"
       width="100"
       x="-50"
       y="-50"><feColorMatrix
         id="mask-powermask-path-effect3_primitive1"
         values="1"
         type="saturate"
         result="fbSourceGraphic" /><feColorMatrix
         id="mask-powermask-path-effect3_primitive2"
         values="-1 0 0 0 1 0 -1 0 0 1 0 0 -1 0 1 0 0 0 1 0 "
         in="fbSourceGraphic" /></filter><clipPath
       clipPathUnits="userSpaceOnUse"
       id="clipPath3"><ellipse
         style="fill:#7d7d7d;stroke:none;stroke-width:7;stroke-linecap:round;stroke-linejoin:round;stroke-dasharray:none"
         id="ellipse3"
         ry="12.5"
         rx="35"
         cy="9.5852337"
         cx="89.130547" /></clipPath><clipPath
       clipPathUnits="userSpaceOnUse"
       id="clipPath3-4"><ellipse
         style="fill:#7d7d7d;stroke:none;stroke-width:7;stroke-linecap:round;stroke-linejoin:round;stroke-dasharray:none"
         id="ellipse3-2"
         ry="12.5"
         rx="35"
         cy="9.5852337"
         cx="89.130547" /></clipPath><clipPath
       clipPathUnits="userSpaceOnUse"
       id="clipPath10"><path
         style="fill:#8d8d8d;fill-opacity:1;stroke:none;stroke-width:7;stroke-linecap:round;stroke-linejoin:round;stroke-dasharray:none;stroke-opacity:1"
         d="m 149.51849,15 h 20 V 0 h 25 v -20 l -15.00001,-10.000001 h -29.99999 z"
         id="path10" /></clipPath><clipPath
       clipPathUnits="userSpaceOnUse"
       id="clipPath11"><path
         style="fill:#8d8d8d;fill-opacity:1;stroke:none;stroke-width:7;stroke-linecap:round;stroke-linejoin:round;stroke-dasharray:none;stroke-opacity:1"
         d="m 195.85208,-36.69583 h 20 v -14.999999 h 30.00049 v -20 l -20.0005,-10.000001 h -29.99999 z"
         id="path11"
         sodipodi:nodetypes="cccccccc" /></clipPath><clipPath
       clipPathUnits="userSpaceOnUse"
       id="clipPath11-3"><path
         style="fill:#8d8d8d;fill-opacity:1;stroke:none;stroke-width:7;stroke-linecap:round;stroke-linejoin:round;stroke-dasharray:none;stroke-opacity:1"
         d="m 195.85208,-36.69583 h 20 v -14.999999 h 30.00049 v -20 l -20.0005,-10.000001 h -29.99999 z"
         id="path11-5"
         sodipodi:nodetypes="cccccccc" /></clipPath><clipPath
       clipPathUnits="userSpaceOnUse"
       id="clipPath2-7"><path
         id="path2-9"
         style="fill:#979797;fill-opacity:1;stroke:#333333;stroke-width:0;stroke-linecap:round;stroke-linejoin:round;stroke-dasharray:none;stroke-opacity:0.1"
         d="M 181.63232,53.749837 V 183.75014 c -3e-5,6.90356 15.66998,12.50001 34.99994,12.50002 19.33016,9e-5 35.00047,-5.59639 35.00044,-12.50002 V 53.749837 c 2e-5,6.903622 -15.67029,12.500102 -35.00044,12.500012 -19.32996,-1.1e-5 -34.99996,-5.596451 -34.99994,-12.500012 z"
         sodipodi:nodetypes="ccccccc" /></clipPath><clipPath
       clipPathUnits="userSpaceOnUse"
       id="clipPath3-3"><ellipse
         style="fill:#7d7d7d;stroke:none;stroke-width:7;stroke-linecap:round;stroke-linejoin:round;stroke-dasharray:none"
         id="ellipse3-8"
         ry="12.5"
         rx="35"
         cy="9.5852337"
         cx="89.130547" /></clipPath><clipPath
       clipPathUnits="userSpaceOnUse"
       id="clipPath11-0"><path
         style="fill:#8d8d8d;fill-opacity:1;stroke:none;stroke-width:7;stroke-linecap:round;stroke-linejoin:round;stroke-dasharray:none;stroke-opacity:1"
         d="m 195.85208,-36.69583 h 20 v -14.999999 h 30.00049 v -20 l -20.0005,-10.000001 h -29.99999 z"
         id="path11-2"
         sodipodi:nodetypes="cccccccc" /></clipPath></defs><g
     inkscape:label="Layer 1"
     inkscape:groupmode="layer"
     id="layer1"><g
       id="g19"
       transform="translate(-1.7499086,1.74999)"><g
         id="g18"><rect
           style="fill:none;fill-opacity:0.1;stroke:#333333;stroke-width:30;stroke-linejoin:round;stroke-dasharray:none;stroke-opacity:1"
           id="rect18"
           width="22.105579"
           height="19.825331"
           x="120.14205"
           y="62.411831" /><g
           id="g16"
           style="stroke:#333333;stroke-width:30;stroke-dasharray:none;stroke-opacity:1"
           transform="translate(92.261256,-193.13398)"><circle
             style="fill:#c7a588;fill-opacity:1;stroke:#333333;stroke-width:30;stroke-linejoin:round;stroke-dasharray:none;stroke-opacity:1"
             id="path1-459"
             cx="-22.011524"
             cy="308.70331"
             r="53.5" /><path
             id="rect6-7"
             style="fill:#8d8d8d;fill-opacity:1;stroke:#333333;stroke-width:30;stroke-linejoin:round;stroke-dasharray:none;stroke-opacity:1"
             d="m 39.396007,336.20303 v 14.49679 l -62.81992,22.86476 h -32.3551 v 15.00012 h 34.99937 l 75.17526,-27.36164 v -25.00002 z"
             sodipodi:nodetypes="ccccccccc" /><rect
             style="fill:#8d8d8d;fill-opacity:1;stroke:#333333;stroke-width:30;stroke-linejoin:round;stroke-dasharray:none;stroke-opacity:1"
             id="rect3-5"
             width="30"
             height="55"
             x="24.395824"
             y="281.20331" /><path
             style="color:#000000;fill:#333333;stroke:#333333;stroke-width:30;stroke-linecap:round;stroke-linejoin:round;stroke-dasharray:none;stroke-opacity:1"
             d="m 63.895827,268.70328 c 0,13.41844 -11.08156,24.5 -24.5,24.5 -13.41844,0 -24.5,-11.08156 -24.5,-24.5 0,-13.41844 11.08156,-24.5 24.5,-24.5 13.41844,0 24.5,11.08156 24.5,24.5 z m -19,0 c 0,-3.15009 -2.34991,-5.5 -5.5,-5.5 -3.15009,0 -5.5,2.34991 -5.5,5.5 0,3.15008 2.34991,5.5 5.5,5.5 3.15009,0 5.5,-2.34992 5.5,-5.5 z"
             id="path7-5-9-3" /></g></g><g
         id="g17"
         transform="translate(13.25)"><circle
           style="fill:#c7a588;fill-opacity:1;stroke:#333333;stroke-width:7;stroke-linejoin:round;stroke-dasharray:none;stroke-opacity:1"
           id="path1"
           cx="56.999821"
           cy="115.5693"
           r="53.5" /><path
           id="path1-4"
           style="fill:#979797;fill-opacity:1;stroke:#333333;stroke-width:7;stroke-linejoin:round;stroke-dasharray:none;stroke-opacity:1"
           d="M 56.999732,62.069328 A 53.5,53.5 0 0 0 44.499723,63.676982 V 167.46186 a 53.5,53.5 0 0 0 12.500009,1.60766 53.5,53.5 0 0 0 12.50002,-1.60766 V 63.56071 a 53.5,53.5 0 0 0 -12.50002,-1.491382 z" /><path
           id="rect6"
           style="fill:#8d8d8d;fill-opacity:1;stroke:#333333;stroke-width:7;stroke-linejoin:round;stroke-dasharray:none;stroke-opacity:1"
           d="m 118.40735,143.06904 v 14.49679 l -62.819928,22.86475 h -32.3551 v 15.00012 h 34.99938 l 75.175258,-27.36164 v -25.00002 z"
           sodipodi:nodetypes="ccccccccc" /><rect
           style="fill:#333333;fill-opacity:0.1;stroke:none;stroke-width:25;stroke-linejoin:round;stroke-dasharray:none;stroke-opacity:0.1"
           id="rect7"
           width="14.999784"
           height="12.499749"
           x="118.40717"
           y="143.06929" /><rect
           style="fill:#333333;fill-opacity:0.1;stroke:none;stroke-width:25;stroke-linejoin:round;stroke-dasharray:none;stroke-opacity:0.1"
           id="rect8"
           width="11.42432"
           height="15.00012"
           x="23.232319"
           y="180.43059" /><path
           id="path1-45"
           style="fill:#333333;fill-opacity:0.1;stroke:none;stroke-width:7;stroke-linejoin:round;stroke-dasharray:none;stroke-opacity:1"
           d="m 56.999732,62.069328 a 53.5,53.5 0 0 0 -53.50009,53.500092 53.5,53.5 0 0 0 53.50009,53.5001 53.5,53.5 0 0 0 53.500098,-53.5001 53.5,53.5 0 0 0 -0.24702,-5.10305 53.5,53.5 0 0 0 -0.002,-0.03 53.5,53.5 0 0 0 -0.73122,-5.03018 53.5,53.5 0 0 0 -0.009,-0.0548 53.5,53.5 0 0 0 -1.20664,-4.92373 53.5,53.5 0 0 0 -0.0176,-0.0636 53.5,53.5 0 0 0 -1.67122,-4.78214 53.5,53.5 0 0 0 -0.0243,-0.0636 53.5,53.5 0 0 0 -2.11976,-4.59559 53.5,53.5 0 0 0 -0.0331,-0.0656 53.5,53.5 0 0 0 -2.55901,-4.386817 53.5,53.5 0 0 0 -0.0222,-0.03514 53.5,53.5 0 0 0 -2.980698,-4.139799 53.5,53.5 0 0 0 -0.0145,-0.0186 53.5,53.5 0 0 0 -3.37705,-3.850411 53.5,53.5 0 0 0 -38.48448,-16.357142 z m 10e-4,12.500013 c 14.16337,0 26.55269,7.034423 33.90645,17.827849 v 46.34446 c -7.35376,10.79343 -19.74308,17.82785 -33.90645,17.82785 -22.791674,0 -41.000084,-18.20841 -41.000084,-41.00008 0,-22.79167 18.20841,-41.000079 41.000084,-41.000079 z" /><rect
           style="fill:#8d8d8d;fill-opacity:1;stroke:#333333;stroke-width:7;stroke-linejoin:round;stroke-dasharray:none;stroke-opacity:1"
           id="rect3"
           width="30"
           height="55"
           x="103.40717"
           y="88.069298" /><path
           id="rect3-9"
           style="fill:#333333;fill-opacity:0.1;stroke:none;stroke-width:7;stroke-linejoin:round;stroke-dasharray:none;stroke-opacity:1"
           d="m 103.40749,88.06929 v 54.99975 h 29.99972 V 88.06929 Z m 12.50053,12.50002 h 4.9997 v 30.00023 h -4.9997 z" /><path
           style="color:#000000;fill:#333333;stroke-linecap:round;stroke-linejoin:round;-inkscape-stroke:none"
           d="m 142.90718,75.5693 c 0,13.41844 -11.08156,24.5 -24.5,24.5 -13.41844,0 -24.5,-11.08156 -24.499999,-24.5 0,-13.41844 11.081559,-24.5 24.499999,-24.5 13.41844,0 24.5,11.08156 24.5,24.5 z m -19,0 c 0,-3.15009 -2.34991,-5.5 -5.5,-5.5 -3.15009,0 -5.5,2.34991 -5.5,5.5 0,3.15008 2.34991,5.5 5.5,5.5 3.15009,0 5.5,-2.34992 5.5,-5.5 z"
           id="path7-5-9" /><path
           style="color:#000000;fill:#979797;stroke-linecap:round;stroke-linejoin:round;-inkscape-stroke:none"
           d="m 135.90718,75.5693 c 0,9.63536 -7.86464,17.5 -17.5,17.5 -9.63536,0 -17.5,-7.86464 -17.5,-17.5 0,-9.63536 7.86464,-17.5 17.5,-17.5 9.63536,0 17.5,7.86464 17.5,17.5 z m -5,0 c 0,-6.93317 -5.56683,-12.5 -12.5,-12.5 -6.93316,0 -12.5,5.56683 -12.5,12.5 0,6.93316 5.56684,12.5 12.5,12.5 6.93317,0 12.5,-5.56684 12.5,-12.5 z"
           id="path7-5" /><path
           id="path8"
           style="fill:#333333;fill-opacity:0.1;stroke:#000000;stroke-width:0;stroke-linecap:butt;stroke-linejoin:miter;stroke-dasharray:none;stroke-opacity:1"
           d="m 126.74185,55.675298 -5.1754,12.320695 a 8.3144054,7.9853964 0 0 1 4.33049,7.007324 8.3144054,7.9853964 0 0 1 -8.31423,7.985559 8.3144054,7.9853964 0 0 1 -2.19108,-0.291972 l -5.16919,12.306226 20.68453,-2.534212 8.78757,-20.837488 z" /></g></g></g></svg>
