<?xml version="1.0" encoding="UTF-8" standalone="no"?>
<!-- Created with Inkscape (http://www.inkscape.org/) -->

<svg
   width="505.89301mm"
   height="250mm"
   viewBox="0 0 505.89299 250"
   version="1.1"
   id="svg5"
   inkscape:version="1.3 (0e150ed, 2023-07-21)"
   sodipodi:docname="mk18_loot.svg"
   xml:space="preserve"
   xmlns:inkscape="http://www.inkscape.org/namespaces/inkscape"
   xmlns:sodipodi="http://sodipodi.sourceforge.net/DTD/sodipodi-0.dtd"
   xmlns="http://www.w3.org/2000/svg"
   xmlns:svg="http://www.w3.org/2000/svg"><sodipodi:namedview
     id="namedview7"
     pagecolor="#ffffff"
     bordercolor="#666666"
     borderopacity="1.0"
     inkscape:pageshadow="2"
     inkscape:pageopacity="0.0"
     inkscape:pagecheckerboard="0"
     inkscape:document-units="mm"
     showgrid="false"
     inkscape:zoom="0.54818821"
     inkscape:cx="1490.3641"
     inkscape:cy="541.78473"
     inkscape:window-width="1440"
     inkscape:window-height="765"
     inkscape:window-x="0"
     inkscape:window-y="25"
     inkscape:window-maximized="1"
     inkscape:current-layer="layer1"
     inkscape:showpageshadow="2"
     inkscape:deskcolor="#d1d1d1" /><defs
     id="defs2"><inkscape:path-effect
       effect="powerclip"
       id="path-effect2"
       is_visible="true"
       lpeversion="1"
       inverse="true"
       flatten="false"
       hide_clip="false"
       message="Use fill-rule evenodd on &lt;b&gt;fill and stroke&lt;/b&gt; dialogue if no flatten result after convert clip to paths." /><clipPath
       clipPathUnits="userSpaceOnUse"
       id="clipPath2"><path
         id="lpe_path-effect2"
         style="stroke:#c7a588;stroke-width:0"
         class="powerclip"
         d="M 140.58735,221.62139 H 182.2943 V 258 h -41.70695 z m -4.44372,-2.62132 v 14.19965 h 1.90427 v 30.75678 h 14.19965 v -30.75678 h 28.85251 V 219.00007 H 152.24755 138.0479 Z" /></clipPath><rect
       x="0"
       y="-177.97614"
       width="882.46503"
       height="177.97614"
       id="rect1-0" /><clipPath
       clipPathUnits="userSpaceOnUse"
       id="clipPath132"><path
         id="path132"
         style="display:block;fill:#333333;fill-opacity:1;stroke:#333333;stroke-width:2;stroke-linecap:butt;stroke-linejoin:round;stroke-dasharray:none;stroke-opacity:1"
         d="m 50.767451,183.85665 c -0.128392,-0.002 -0.25813,0.009 -0.388091,0.0351 -0.693129,0.14124 -1.33804,0.89402 -1.346171,1.65055 l -0.112649,6.689 v 1.6247 H 30.9206 v -0.49971 h -8.00003 v 4.49998 h 8.00003 v -0.50022 h 17.99994 v 1.62522 h 10.250019 v 1.62471 H 89.17079 l 3.500049,0.99994 v -1.24954 h 2.749701 v 0.15348 c 0.009,2.36911 2.428809,0.61984 2.500111,3.64836 v 4.01164 l -0.999942,0.37258 v 1.9327 l 1.79007,0.32763 c 0.237421,7.82547 -2.324478,15.28702 -4.566129,22.67614 l 0.564819,0.1881 c -0.700629,-0.0984 -1.39043,0.30931 -1.62574,1.00511 -0.266218,0.7872 0.15331,1.63495 0.940512,1.90117 l 11.367269,3.84473 c 0.7872,0.26622 1.63547,-0.15331 1.90169,-0.94051 0.26622,-0.78721 -0.15331,-1.63548 -0.94051,-1.9017 l -5.68338,-1.92184 6.52415,2.17454 c 3.23749,-8.22402 4.93595,-17.81651 5.02605,-24.55302 l 1.53221,0.2806 h 2.83445 4.33049 5.50405 l 7.29465,12.46694 c 0.4467,0.68651 -0.19225,1.58455 -0.39584,1.73736 -0.63149,0.66214 0.15683,2.3018 1.91151,1.82263 l 9.47952,-2.2009 c 1.2425,-0.31761 1.27144,-1.63497 0.84646,-2.23449 l -10.14046,-14.62852 c -1.11927,-1.66316 -0.95997,-2.75386 -0.99581,-3.76308 -0.0512,-2.04169 1.36588,-2.83828 3.27371,-2.85977 h 2.47581 v -4.04007 h 3.00034 6.74997 v 3.50005 4.49998 h 9.32605 l 7.67395,4.49998 v -3.90518 l 1.01802,0.40514 c 0.0413,0.0571 7.74992,11.73727 7.74992,11.73727 0.41537,0.42248 1.36136,0.2395 1.48673,-0.30334 1.96543,-8.42499 4.00856,-25.45154 2.8882,-28.43393 h -36.89284 -5.3e-4 -2.99982 l -5.74952,-3.1998 h -35.999868 -3.00033 v 2.19987 h -2.749701 v -1.25006 l -3.500048,0.99994 H 86.17046 v -3.1998 H 59.170559 v 3.1998 1.62523 h -0.96997 c -0.0398,-0.0893 -0.0903,-0.1735 -0.150381,-0.25064 l -5.822379,-7.39799 -0.01389,-0.0171 c -0.363522,-0.42977 -0.89008,-0.69883 -1.44643,-0.709 z m 0.62684,4.78834 h 0.961179 l 2.822051,3.58635 h -3.84369 z"
         sodipodi:nodetypes="cccccccccccccccccccccccccccsccscccccccccccccccccccccccccccccccccccccccccccccccccccccc" /></clipPath><inkscape:path-effect
       effect="powerclip"
       id="path-effect132"
       is_visible="true"
       lpeversion="1"
       inverse="true"
       flatten="false"
       hide_clip="false"
       message="Use fill-rule evenodd on &lt;b&gt;fill and stroke&lt;/b&gt; dialogue if no flatten result after convert clip to paths." /><clipPath
       clipPathUnits="userSpaceOnUse"
       id="clipPath132-9"><path
         id="path132-7"
         style="display:none;fill:#333333;fill-opacity:1;stroke:#333333;stroke-width:2;stroke-linecap:butt;stroke-linejoin:round;stroke-dasharray:none;stroke-opacity:1"
         d="m 50.767451,183.85665 c -0.128392,-0.002 -0.25813,0.009 -0.388091,0.0351 -0.693129,0.14124 -1.33804,0.89402 -1.346171,1.65055 l -0.112649,6.689 v 1.6247 H 30.9206 v -0.49971 h -8.00003 v 4.49998 h 8.00003 v -0.50022 h 17.99994 v 1.62522 h 10.250019 v 1.62471 H 89.17079 l 3.500049,0.99994 v -1.24954 h 2.749701 v 0.15348 c 0.009,2.36911 2.428809,0.61984 2.500111,3.64836 v 4.01164 l -0.999942,0.37258 v 1.9327 l 1.79007,0.32763 c 0.237421,7.82547 -2.324478,15.28702 -4.566129,22.67614 l 0.564819,0.1881 c -0.700629,-0.0984 -1.39043,0.30931 -1.62574,1.00511 -0.266218,0.7872 0.15331,1.63495 0.940512,1.90117 l 11.367269,3.84473 c 0.7872,0.26622 1.63547,-0.15331 1.90169,-0.94051 0.26622,-0.78721 -0.15331,-1.63548 -0.94051,-1.9017 l -5.68338,-1.92184 6.52415,2.17454 c 3.23749,-8.22402 4.93595,-17.81651 5.02605,-24.55302 l 1.53221,0.2806 h 2.83445 4.33049 5.50405 l 7.29465,12.46694 c 0.4467,0.68651 -0.19225,1.58455 -0.39584,1.73736 -0.63149,0.66214 0.15683,2.3018 1.91151,1.82263 l 9.47952,-2.2009 c 1.2425,-0.31761 1.27144,-1.63497 0.84646,-2.23449 l -10.14046,-14.62852 c -1.11927,-1.66316 -0.95997,-2.75386 -0.99581,-3.76308 -0.0512,-2.04169 1.36588,-2.83828 3.27371,-2.85977 h 2.47581 v -4.04007 h 3.00034 6.74997 v 3.50005 4.49998 h 9.32605 l 7.67395,4.49998 v -3.90518 l 1.01802,0.40514 c 0.0413,0.0571 7.74992,11.73727 7.74992,11.73727 0.41537,0.42248 1.36136,0.2395 1.48673,-0.30334 1.96543,-8.42499 4.00856,-25.45154 2.8882,-28.43393 h -36.89284 -5.3e-4 -2.99982 l -5.74952,-3.1998 h -35.999868 -3.00033 v 2.19987 h -2.749701 v -1.25006 l -3.500048,0.99994 H 86.17046 v -3.1998 H 59.170559 v 3.1998 1.62523 h -0.96997 c -0.0398,-0.0893 -0.0903,-0.1735 -0.150381,-0.25064 l -5.822379,-7.39799 -0.01389,-0.0171 c -0.363522,-0.42977 -0.89008,-0.69883 -1.44643,-0.709 z m 0.62684,4.78834 h 0.961179 l 2.822051,3.58635 h -3.84369 z"
         sodipodi:nodetypes="cccccccccccccccccccccccccccsccscccccccccccccccccccccccccccccccccccccccccccccccccccccc" /><path
         id="lpe_path-effect132-5"
         style="fill:#333333;fill-opacity:1;stroke:#333333;stroke-width:2;stroke-linecap:butt;stroke-linejoin:round;stroke-dasharray:none;stroke-opacity:1"
         class="powerclip"
         d="M 12.915088,173.88103 H 190.41772 v 76.58636 H 12.915088 Z m 37.852363,9.97562 c -0.128392,-0.002 -0.25813,0.009 -0.388091,0.0351 -0.693129,0.14124 -1.33804,0.89402 -1.346171,1.65055 l -0.112649,6.689 v 1.6247 H 30.9206 v -0.49971 h -8.00003 v 4.49998 h 8.00003 v -0.50022 h 17.99994 v 1.62522 h 10.250019 v 1.62471 H 89.17079 l 3.500049,0.99994 v -1.24954 h 2.749701 v 0.15348 c 0.009,2.36911 2.428809,0.61984 2.500111,3.64836 v 4.01164 l -0.999942,0.37258 v 1.9327 l 1.79007,0.32763 c 0.237421,7.82547 -2.324478,15.28702 -4.566129,22.67614 l 0.564819,0.1881 c -0.700629,-0.0984 -1.39043,0.30931 -1.62574,1.00511 -0.266218,0.7872 0.15331,1.63495 0.940512,1.90117 l 11.367269,3.84473 c 0.7872,0.26622 1.63547,-0.15331 1.90169,-0.94051 0.26622,-0.78721 -0.15331,-1.63548 -0.94051,-1.9017 l -5.68338,-1.92184 6.52415,2.17454 c 3.23749,-8.22402 4.93595,-17.81651 5.02605,-24.55302 l 1.53221,0.2806 h 2.83445 4.33049 5.50405 l 7.29465,12.46694 c 0.4467,0.68651 -0.19225,1.58455 -0.39584,1.73736 -0.63149,0.66214 0.15683,2.3018 1.91151,1.82263 l 9.47952,-2.2009 c 1.2425,-0.31761 1.27144,-1.63497 0.84646,-2.23449 l -10.14046,-14.62852 c -1.11927,-1.66316 -0.95997,-2.75386 -0.99581,-3.76308 -0.0512,-2.04169 1.36588,-2.83828 3.27371,-2.85977 h 2.47581 v -4.04007 h 3.00034 6.74997 v 3.50005 4.49998 h 9.32605 l 7.67395,4.49998 v -3.90518 l 1.01802,0.40514 c 0.0413,0.0571 7.74992,11.73727 7.74992,11.73727 0.41537,0.42248 1.36136,0.2395 1.48673,-0.30334 1.96543,-8.42499 4.00856,-25.45154 2.8882,-28.43393 h -36.89284 -5.3e-4 -2.99982 l -5.74952,-3.1998 h -35.999868 -3.00033 v 2.19987 h -2.749701 v -1.25006 l -3.500048,0.99994 H 86.17046 v -3.1998 H 59.170559 v 3.1998 1.62523 h -0.96997 c -0.0398,-0.0893 -0.0903,-0.1735 -0.150381,-0.25064 l -5.822379,-7.39799 -0.01389,-0.0171 c -0.363522,-0.42977 -0.89008,-0.69883 -1.44643,-0.709 z m 0.62684,4.78834 -0.06046,3.58635 h 3.84369 l -2.822051,-3.58635 z" /></clipPath><inkscape:path-effect
       effect="powerclip"
       id="path-effect132-6"
       is_visible="true"
       lpeversion="1"
       inverse="true"
       flatten="false"
       hide_clip="false"
       message="Use fill-rule evenodd on &lt;b&gt;fill and stroke&lt;/b&gt; dialogue if no flatten result after convert clip to paths." /><clipPath
       clipPathUnits="userSpaceOnUse"
       id="clipath_lpe_path-effect132-6"><path
         id="path6"
         style="display:block;fill:#333333;fill-opacity:1;stroke:#333333;stroke-width:2;stroke-linecap:butt;stroke-linejoin:round;stroke-dasharray:none;stroke-opacity:1"
         d="m 50.767451,183.85665 c -0.128392,-0.002 -0.25813,0.009 -0.388091,0.0351 -0.693129,0.14124 -1.33804,0.89402 -1.346171,1.65055 l -0.112649,6.689 v 1.6247 H 30.9206 v -0.49971 h -8.00003 v 4.49998 h 8.00003 v -0.50022 h 17.99994 v 1.62522 h 10.250019 v 1.62471 H 89.17079 l 3.500049,0.99994 v -1.24954 h 2.749701 v 0.15348 c 0.009,2.36911 2.428809,0.61984 2.500111,3.64836 v 4.01164 l -0.999942,0.37258 v 1.9327 l 1.79007,0.32763 c 0.237421,7.82547 -2.324478,15.28702 -4.566129,22.67614 l 0.564819,0.1881 c -0.700629,-0.0984 -1.39043,0.30931 -1.62574,1.00511 -0.266218,0.7872 0.15331,1.63495 0.940512,1.90117 l 11.367269,3.84473 c 0.7872,0.26622 1.63547,-0.15331 1.90169,-0.94051 0.26622,-0.78721 -0.15331,-1.63548 -0.94051,-1.9017 l -5.68338,-1.92184 6.52415,2.17454 c 3.23749,-8.22402 4.93595,-17.81651 5.02605,-24.55302 l 1.53221,0.2806 h 2.83445 4.33049 5.50405 l 7.29465,12.46694 c 0.4467,0.68651 -0.19225,1.58455 -0.39584,1.73736 -0.63149,0.66214 0.15683,2.3018 1.91151,1.82263 l 9.47952,-2.2009 c 1.2425,-0.31761 1.27144,-1.63497 0.84646,-2.23449 l -10.14046,-14.62852 c -1.11927,-1.66316 -0.95997,-2.75386 -0.99581,-3.76308 -0.0512,-2.04169 1.36588,-2.83828 3.27371,-2.85977 h 2.47581 v -4.04007 h 3.00034 6.74997 v 3.50005 4.49998 h 9.32605 l 7.67395,4.49998 v -3.90518 l 1.01802,0.40514 c 0.0413,0.0571 7.74992,11.73727 7.74992,11.73727 0.41537,0.42248 1.36136,0.2395 1.48673,-0.30334 1.96543,-8.42499 4.00856,-25.45154 2.8882,-28.43393 h -36.89284 -5.3e-4 -2.99982 l -5.74952,-3.1998 h -35.999868 -3.00033 v 2.19987 h -2.749701 v -1.25006 l -3.500048,0.99994 H 86.17046 v -3.1998 H 59.170559 v 3.1998 1.62523 h -0.96997 c -0.0398,-0.0893 -0.0903,-0.1735 -0.150381,-0.25064 l -5.822379,-7.39799 -0.01389,-0.0171 c -0.363522,-0.42977 -0.89008,-0.69883 -1.44643,-0.709 z m 0.62684,4.78834 h 0.961179 l 2.822051,3.58635 h -3.84369 z"
         sodipodi:nodetypes="cccccccccccccccccccccccccccsccscccccccccccccccccccccccccccccccccccccccccccccccccccccc" /></clipPath><clipPath
       clipPathUnits="userSpaceOnUse"
       id="clipPath74"><path
         id="path74"
         style="display:block;fill:none;fill-opacity:1;stroke:#333333;stroke-width:2;stroke-linecap:butt;stroke-linejoin:round;stroke-dasharray:none;stroke-opacity:1"
         d="m 223.90899,159.74533 v 3.49953 h 0.0129 l -5.3e-4,5.3e-4 h -4.01216 v 4.49999 h -5.3e-4 v -7.21248 h -4.49998 v 2.71249 h -3.09128 v -1.00045 H 203.535 l 3.22461,6.50038 h 5.5578 v -0.99994 h 3.09128 v 3.78736 2.94349 h -5.73557 -3.00033 v 2.19987 h -2.7497 v -1.25005 l -3.50005,0.99993 h -3.00033 v -3.20032 h -26.99985 v 5.3e-4 3.1998 1.62471 h -0.96997 c -0.0398,-0.0893 -0.0903,-0.17349 -0.15038,-0.25063 l -5.82238,-7.398 -0.0139,-0.0171 c -0.36352,-0.42977 -0.89008,-0.69883 -1.44643,-0.709 -0.12839,-0.002 -0.25813,0.009 -0.38809,0.0351 -0.69313,0.14124 -1.33803,0.89401 -1.34617,1.65054 l -0.11265,6.689 v 1.62523 h -17.99994 v -0.50023 h -8.00003 v 4.49998 h 8.00003 v -0.49971 h 17.99994 v 1.62471 h 10.25002 v 1.62522 h 30.00023 l 3.50005,0.99994 v -1.25005 h 2.7497 v 0.15399 c 0.009,2.36911 2.42881,0.61984 2.50011,3.64836 v 4.01164 l -0.99994,0.37259 v 1.9327 l 1.79007,0.32762 c 0.23742,7.82548 -2.32448,15.28704 -4.56613,22.67614 l 0.56482,0.1881 c -0.70063,-0.0984 -1.39043,0.30931 -1.62574,1.00511 -0.26622,0.7872 0.15331,1.63496 0.94051,1.90117 l 11.36727,3.84421 c 0.7872,0.26622 1.63547,-0.15279 1.90169,-0.93999 0.26622,-0.7872 -0.15331,-1.63547 -0.94051,-1.90169 l 0.84077,0.2527 c 3.23749,-8.22403 4.93595,-17.81651 5.02605,-24.55303 l 1.53221,0.2806 h 7.16494 c 1.15248,0 2.75217,-8e-4 2.83497,0.004 v -0.004 h 2.66908 l 7.29465,12.46694 c 0.4467,0.68651 -0.19225,1.58456 -0.39584,1.73737 -0.63149,0.66214 0.15683,2.30128 1.91151,1.82211 l 9.47952,-2.20039 c 1.2425,-0.31761 1.27144,-1.63498 0.84646,-2.23448 L 246.6689,196.33891 c -1.11927,-1.66316 -0.95997,-2.75386 -0.99581,-3.76308 -0.0512,-2.04167 1.36588,-2.83828 3.27371,-2.85977 h 2.47581 V 185.676 h 3.00034 6.74997 v 3.50004 4.49998 h 9.32605 l 7.67395,4.49999 v -3.90519 l 1.01801,0.40514 c 0.0413,0.0571 7.74993,11.73727 7.74993,11.73727 0.41537,0.42248 1.36134,0.2395 1.48672,-0.30334 1.96543,-8.42498 4.00855,-25.45155 2.88819,-28.43392 h -36.89282 -5.3e-4 -2.99982 l -5.74952,-3.19985 h -3.76411 v -2.94349 h -5.49992 v -3.78736 h 5.76399 v 0.99994 h 10.25002 v -6.50038 h -10.25002 v 1.00045 h -5.76399 v -2.71249 h -4.49998 v 2.71249 h -4.01216 c -2.7e-4,-2.4e-4 -7.9e-4,-2.7e-4 -0.001,-5.3e-4 h 0.0134 v -3.49953 z m 4.99918,5.73402 c 3e-5,0.006 10e-4,0.0109 10e-4,0.0165 0,0.006 -10e-4,0.011 -10e-4,0.0165 2e-5,-0.006 5.3e-4,-0.011 5.3e-4,-0.0165 0,-0.006 -5.3e-4,-0.011 -5.3e-4,-0.0165 z m -48.48542,21.01577 v 3.50004 h 8.99997 v -3.50004 z m 2.39624,3.62355 c -0.74605,4.40695 -0.74205,13.46941 0,17.99993 h 4.19974 c 0.75295,-4.55288 0.75495,-13.54232 0,-17.99993 z" /></clipPath><inkscape:path-effect
       effect="powerclip"
       id="path-effect74"
       is_visible="true"
       lpeversion="1"
       inverse="true"
       flatten="false"
       hide_clip="false"
       message="Use fill-rule evenodd on &lt;b&gt;fill and stroke&lt;/b&gt; dialogue if no flatten result after convert clip to paths." /><clipPath
       clipPathUnits="userSpaceOnUse"
       id="clipPath74-8"><path
         id="path74-9"
         style="display:none;fill:none;fill-opacity:1;stroke:#333333;stroke-width:2;stroke-linecap:butt;stroke-linejoin:round;stroke-dasharray:none;stroke-opacity:1"
         d="m 223.90899,159.74533 v 3.49953 h 0.0129 l -5.3e-4,5.3e-4 h -4.01216 v 4.49999 h -5.3e-4 v -7.21248 h -4.49998 v 2.71249 h -3.09128 v -1.00045 H 203.535 l 3.22461,6.50038 h 5.5578 v -0.99994 h 3.09128 v 3.78736 2.94349 h -5.73557 -3.00033 v 2.19987 h -2.7497 v -1.25005 l -3.50005,0.99993 h -3.00033 v -3.20032 h -26.99985 v 5.3e-4 3.1998 1.62471 h -0.96997 c -0.0398,-0.0893 -0.0903,-0.17349 -0.15038,-0.25063 l -5.82238,-7.398 -0.0139,-0.0171 c -0.36352,-0.42977 -0.89008,-0.69883 -1.44643,-0.709 -0.12839,-0.002 -0.25813,0.009 -0.38809,0.0351 -0.69313,0.14124 -1.33803,0.89401 -1.34617,1.65054 l -0.11265,6.689 v 1.62523 h -17.99994 v -0.50023 h -8.00003 v 4.49998 h 8.00003 v -0.49971 h 17.99994 v 1.62471 h 10.25002 v 1.62522 h 30.00023 l 3.50005,0.99994 v -1.25005 h 2.7497 v 0.15399 c 0.009,2.36911 2.42881,0.61984 2.50011,3.64836 v 4.01164 l -0.99994,0.37259 v 1.9327 l 1.79007,0.32762 c 0.23742,7.82548 -2.32448,15.28704 -4.56613,22.67614 l 0.56482,0.1881 c -0.70063,-0.0984 -1.39043,0.30931 -1.62574,1.00511 -0.26622,0.7872 0.15331,1.63496 0.94051,1.90117 l 11.36727,3.84421 c 0.7872,0.26622 1.63547,-0.15279 1.90169,-0.93999 0.26622,-0.7872 -0.15331,-1.63547 -0.94051,-1.90169 l 0.84077,0.2527 c 3.23749,-8.22403 4.93595,-17.81651 5.02605,-24.55303 l 1.53221,0.2806 h 7.16494 c 1.15248,0 2.75217,-8e-4 2.83497,0.004 v -0.004 h 2.66908 l 7.29465,12.46694 c 0.4467,0.68651 -0.19225,1.58456 -0.39584,1.73737 -0.63149,0.66214 0.15683,2.30128 1.91151,1.82211 l 9.47952,-2.20039 c 1.2425,-0.31761 1.27144,-1.63498 0.84646,-2.23448 L 246.6689,196.33891 c -1.11927,-1.66316 -0.95997,-2.75386 -0.99581,-3.76308 -0.0512,-2.04167 1.36588,-2.83828 3.27371,-2.85977 h 2.47581 V 185.676 h 3.00034 6.74997 v 3.50004 4.49998 h 9.32605 l 7.67395,4.49999 v -3.90519 l 1.01801,0.40514 c 0.0413,0.0571 7.74993,11.73727 7.74993,11.73727 0.41537,0.42248 1.36134,0.2395 1.48672,-0.30334 1.96543,-8.42498 4.00855,-25.45155 2.88819,-28.43392 h -36.89282 -5.3e-4 -2.99982 l -5.74952,-3.19985 h -3.76411 v -2.94349 h -5.49992 v -3.78736 h 5.76399 v 0.99994 h 10.25002 v -6.50038 h -10.25002 v 1.00045 h -5.76399 v -2.71249 h -4.49998 v 2.71249 h -4.01216 c -2.7e-4,-2.4e-4 -7.9e-4,-2.7e-4 -0.001,-5.3e-4 h 0.0134 v -3.49953 z m 4.99918,5.73402 c 3e-5,0.006 10e-4,0.0109 10e-4,0.0165 0,0.006 -10e-4,0.011 -10e-4,0.0165 2e-5,-0.006 5.3e-4,-0.011 5.3e-4,-0.0165 0,-0.006 -5.3e-4,-0.011 -5.3e-4,-0.0165 z m -48.48542,21.01577 v 3.50004 h 8.99997 v -3.50004 z m 2.39624,3.62355 c -0.74605,4.40695 -0.74205,13.46941 0,17.99993 h 4.19974 c 0.75295,-4.55288 0.75495,-13.54232 0,-17.99993 z" /><path
         id="lpe_path-effect74-1"
         style="fill:none;fill-opacity:1;stroke:#333333;stroke-width:2;stroke-linecap:butt;stroke-linejoin:round;stroke-dasharray:none;stroke-opacity:1"
         class="powerclip"
         d="m 124.18163,149.78417 h 177.4738 v 86.4882 h -177.4738 z m 99.72736,9.96116 v 3.49953 h 0.0129 l -5.3e-4,5.3e-4 h -4.01216 v 4.49999 h -5.3e-4 v -7.21248 h -4.49998 v 2.71249 h -3.09128 v -1.00045 H 203.535 l 3.22461,6.50038 h 5.5578 v -0.99994 h 3.09128 v 3.78736 2.94349 h -5.73557 -3.00033 v 2.19987 h -2.7497 v -1.25005 l -3.50005,0.99993 h -3.00033 v -3.20032 h -26.99985 v 5.3e-4 3.1998 1.62471 h -0.96997 c -0.0398,-0.0893 -0.0903,-0.17349 -0.15038,-0.25063 l -5.82238,-7.398 -0.0139,-0.0171 c -0.36352,-0.42977 -0.89008,-0.69883 -1.44643,-0.709 -0.12839,-0.002 -0.25813,0.009 -0.38809,0.0351 -0.69313,0.14124 -1.33803,0.89401 -1.34617,1.65054 l -0.11265,6.689 v 1.62523 h -17.99994 v -0.50023 h -8.00003 v 4.49998 h 8.00003 v -0.49971 h 17.99994 v 1.62471 h 10.25002 v 1.62522 h 30.00023 l 3.50005,0.99994 v -1.25005 h 2.7497 v 0.15399 c 0.009,2.36911 2.42881,0.61984 2.50011,3.64836 v 4.01164 l -0.99994,0.37259 v 1.9327 l 1.79007,0.32762 c 0.23742,7.82548 -2.32448,15.28704 -4.56613,22.67614 l 0.56482,0.1881 c -0.70063,-0.0984 -1.39043,0.30931 -1.62574,1.00511 -0.26622,0.7872 0.15331,1.63496 0.94051,1.90117 l 11.36727,3.84421 c 0.7872,0.26622 1.63547,-0.15279 1.90169,-0.93999 0.26622,-0.7872 -0.15331,-1.63547 -0.94051,-1.90169 l 0.84077,0.2527 c 3.23749,-8.22403 4.93595,-17.81651 5.02605,-24.55303 l 1.53221,0.2806 h 7.16494 c 1.15248,0 2.75217,-8e-4 2.83497,0.004 v -0.004 h 2.66908 l 7.29465,12.46694 c 0.4467,0.68651 -0.19225,1.58456 -0.39584,1.73737 -0.63149,0.66214 0.15683,2.30128 1.91151,1.82211 l 9.47952,-2.20039 c 1.2425,-0.31761 1.27144,-1.63498 0.84646,-2.23448 L 246.6689,196.33891 c -1.11927,-1.66316 -0.95997,-2.75386 -0.99581,-3.76308 -0.0512,-2.04167 1.36588,-2.83828 3.27371,-2.85977 h 2.47581 V 185.676 h 3.00034 6.74997 v 3.50004 4.49998 h 9.32605 l 7.67395,4.49999 v -3.90519 l 1.01801,0.40514 c 0.0413,0.0571 7.74993,11.73727 7.74993,11.73727 0.41537,0.42248 1.36134,0.2395 1.48672,-0.30334 1.96543,-8.42498 4.00855,-25.45155 2.88819,-28.43392 h -36.89282 -5.3e-4 -2.99982 l -5.74952,-3.19985 h -3.76411 v -2.94349 h -5.49992 v -3.78736 h 5.76399 v 0.99994 h 10.25002 v -6.50038 h -10.25002 v 1.00045 h -5.76399 v -2.71249 h -4.49998 v 2.71249 h -4.01216 c -2.7e-4,-2.4e-4 -7.9e-4,-2.7e-4 -0.001,-5.3e-4 h 0.0134 v -3.49953 z m 4.99918,5.73402 c 0,0.005 5.3e-4,0.0105 5.3e-4,0.0165 0,0.006 -5.1e-4,0.0105 -5.3e-4,0.0165 0,-0.006 10e-4,-0.0105 10e-4,-0.0165 0,-0.006 -9.7e-4,-0.0105 -10e-4,-0.0165 z m -48.48542,21.01577 v 3.50004 h 8.99997 v -3.50004 z m 2.39624,3.62355 c -0.74605,4.40695 -0.74205,13.46941 0,17.99993 h 4.19974 c 0.75295,-4.55288 0.75495,-13.54232 0,-17.99993 z" /></clipPath><inkscape:path-effect
       effect="powerclip"
       id="path-effect74-4"
       is_visible="true"
       lpeversion="1"
       inverse="true"
       flatten="false"
       hide_clip="false"
       message="Use fill-rule evenodd on &lt;b&gt;fill and stroke&lt;/b&gt; dialogue if no flatten result after convert clip to paths." /><clipPath
       clipPathUnits="userSpaceOnUse"
       id="clipath_lpe_path-effect74-4"><path
         id="path1"
         style="display:block;fill:none;fill-opacity:1;stroke:#333333;stroke-width:2;stroke-linecap:butt;stroke-linejoin:round;stroke-dasharray:none;stroke-opacity:1"
         d="m 223.90899,159.74533 v 3.49953 h 0.0129 l -5.3e-4,5.3e-4 h -4.01216 v 4.49999 h -5.3e-4 v -7.21248 h -4.49998 v 2.71249 h -3.09128 v -1.00045 H 203.535 l 3.22461,6.50038 h 5.5578 v -0.99994 h 3.09128 v 3.78736 2.94349 h -5.73557 -3.00033 v 2.19987 h -2.7497 v -1.25005 l -3.50005,0.99993 h -3.00033 v -3.20032 h -26.99985 v 5.3e-4 3.1998 1.62471 h -0.96997 c -0.0398,-0.0893 -0.0903,-0.17349 -0.15038,-0.25063 l -5.82238,-7.398 -0.0139,-0.0171 c -0.36352,-0.42977 -0.89008,-0.69883 -1.44643,-0.709 -0.12839,-0.002 -0.25813,0.009 -0.38809,0.0351 -0.69313,0.14124 -1.33803,0.89401 -1.34617,1.65054 l -0.11265,6.689 v 1.62523 h -17.99994 v -0.50023 h -8.00003 v 4.49998 h 8.00003 v -0.49971 h 17.99994 v 1.62471 h 10.25002 v 1.62522 h 30.00023 l 3.50005,0.99994 v -1.25005 h 2.7497 v 0.15399 c 0.009,2.36911 2.42881,0.61984 2.50011,3.64836 v 4.01164 l -0.99994,0.37259 v 1.9327 l 1.79007,0.32762 c 0.23742,7.82548 -2.32448,15.28704 -4.56613,22.67614 l 0.56482,0.1881 c -0.70063,-0.0984 -1.39043,0.30931 -1.62574,1.00511 -0.26622,0.7872 0.15331,1.63496 0.94051,1.90117 l 11.36727,3.84421 c 0.7872,0.26622 1.63547,-0.15279 1.90169,-0.93999 0.26622,-0.7872 -0.15331,-1.63547 -0.94051,-1.90169 l 0.84077,0.2527 c 3.23749,-8.22403 4.93595,-17.81651 5.02605,-24.55303 l 1.53221,0.2806 h 7.16494 c 1.15248,0 2.75217,-8e-4 2.83497,0.004 v -0.004 h 2.66908 l 7.29465,12.46694 c 0.4467,0.68651 -0.19225,1.58456 -0.39584,1.73737 -0.63149,0.66214 0.15683,2.30128 1.91151,1.82211 l 9.47952,-2.20039 c 1.2425,-0.31761 1.27144,-1.63498 0.84646,-2.23448 L 246.6689,196.33891 c -1.11927,-1.66316 -0.95997,-2.75386 -0.99581,-3.76308 -0.0512,-2.04167 1.36588,-2.83828 3.27371,-2.85977 h 2.47581 V 185.676 h 3.00034 6.74997 v 3.50004 4.49998 h 9.32605 l 7.67395,4.49999 v -3.90519 l 1.01801,0.40514 c 0.0413,0.0571 7.74993,11.73727 7.74993,11.73727 0.41537,0.42248 1.36134,0.2395 1.48672,-0.30334 1.96543,-8.42498 4.00855,-25.45155 2.88819,-28.43392 h -36.89282 -5.3e-4 -2.99982 l -5.74952,-3.19985 h -3.76411 v -2.94349 h -5.49992 v -3.78736 h 5.76399 v 0.99994 h 10.25002 v -6.50038 h -10.25002 v 1.00045 h -5.76399 v -2.71249 h -4.49998 v 2.71249 h -4.01216 c -2.7e-4,-2.4e-4 -7.9e-4,-2.7e-4 -0.001,-5.3e-4 h 0.0134 v -3.49953 z m 4.99918,5.73402 c 3e-5,0.006 10e-4,0.0109 10e-4,0.0165 0,0.006 -10e-4,0.011 -10e-4,0.0165 2e-5,-0.006 5.3e-4,-0.011 5.3e-4,-0.0165 0,-0.006 -5.3e-4,-0.011 -5.3e-4,-0.0165 z m -48.48542,21.01577 v 3.50004 h 8.99997 v -3.50004 z m 2.39624,3.62355 c -0.74605,4.40695 -0.74205,13.46941 0,17.99993 h 4.19974 c 0.75295,-4.55288 0.75495,-13.54232 0,-17.99993 z" /></clipPath><rect
       x="0"
       y="-177.97614"
       width="882.46503"
       height="177.97614"
       id="rect1-0-3" /></defs><g
     inkscape:label="Layer 1"
     inkscape:groupmode="layer"
     id="layer1"><g
       id="g1"><g
         id="g3"><path
           id="rect17-0-4-8"
           style="color:#000000;fill:#333333;stroke-linecap:round;stroke-linejoin:round;-inkscape-stroke:none"
           d="m 219.82621,25.875147 -12.08402,5.2e-4 c -3.19364,0.128851 -6.26265,1.274363 -8.75967,3.26956 -1.06952,-0.424068 -2.18428,-0.723691 -3.32228,-0.89296 h -13.594 c -4.86059,0.111137 -9.36592,2.570947 -12.08764,6.59959 -1.67145,-0.800005 -3.47666,-1.283412 -5.32422,-1.42575 h -30.96297 c -8.28402,7.62e-4 -14.99936,6.716098 -15.00012,15.00012 v 19.63497 c 0.12127,4.800584 2.53343,9.252973 6.4885,11.97653 H 16.207111 c -6.2488987,7.14e-4 -11.8428586,3.874961 -14.0410096,9.72448 -3.02619996,8.05568 -2.06540996,12.272443 -1.85155996,19.369363 0.21384,7.09692 0.88509996,15.45205 1.84535996,24.30446 1.91982,17.69828 4.94639,37.10153 8.1602296,50.88268 1.97197,8.50901 8.70627,11.89509 13.58832,12.87105 4.88483,0.97651 10.83341,0.64141 16.21089,-4.82813 0.678678,-0.69064 1.288894,-1.44536 1.82211,-2.25361 0,0 5.8218,-8.82118 11.65821,-17.66249 0.20184,-0.30578 0.35491,-0.53635 0.55655,-0.84181 3.215347,0.45916 6.492864,-0.13763 9.34,-1.70067 l 19.66805,-11.53366 H 107.2615 c 8.28382,-7.6e-4 14.99907,-6.71578 15.00012,-14.9996 v -9.16637 h 0.20102 c 1.31377,6.74192 7.03857,11.73036 13.89683,12.10934 l -28.24634,40.74428 0.092,-0.12867 c -3.73237,5.26529 -4.37089,10.13922 -2.93729,15.95665 1.43361,5.81741 7.34434,12.29496 14.01517,14.00018 0.10788,0.0272 0.21607,0.0532 0.32453,0.078 l 28.63442,6.64869 -0.5581,-0.14056 c 7.39459,2.01935 16.73062,-0.75883 21.36872,-6.70709 3.29525,-4.22606 5.15694,-10.46554 3.35742,-16.49822 l 14.42806,-24.65637 c 0.17877,-0.007 0.38051,-0.0172 0.47852,-0.0176 0.51771,-0.002 1.24701,-0.003 2.07791,-0.004 h 5.47874 12.38839 c 0.78453,4.60465 1.96635,9.23415 3.33623,14.06065 -0.53745,2.83266 -0.52804,5.78509 0.28887,8.68164 2.86661,10.16428 13.93553,16.36298 24.09982,13.49633 l 34.88676,-9.83971 c 10.16422,-2.86662 16.36247,-13.93553 13.49582,-24.09982 -0.74528,-2.64259 -2.06388,-4.99667 -3.75791,-7.01353 -1.47994,-3.76193 -2.13322,-6.37026 -2.39624,-9.01547 3.08283,-2.67821 4.94059,-6.49748 5.14439,-10.5761 v -5.83995 c -0.16294,-2.34979 -0.87691,-4.6282 -2.08411,-6.65076 1.33606,0.22283 2.69614,0.26368 4.04317,0.12144 l 8.55451,-2.44326 h 17.2558 c 0.85763,2.81969 2.52682,5.32428 4.79919,7.20111 -1.0977,15.17873 -0.58149,32.98801 1.53324,45.77499 1.19782,7.24113 7.45905,12.55236 14.79858,12.55324 h 12.68759 c 7.34857,-7.3e-4 13.61482,-5.32458 14.80272,-12.5765 2.0865,-12.73859 2.60777,-30.59976 1.52135,-45.7693 2.26286,-1.87458 3.92535,-4.37245 4.78111,-7.18354 h 16.34008 c 3.98044,-0.19004 7.7217,-1.95599 10.39833,-4.90823 h 20.56257 c 3.98044,-0.19003 7.72171,-1.95599 10.39834,-4.90822 h 38.34184 c 1.76076,0.86676 3.67449,1.3796 5.63273,1.50947 h 24.16597 c 8.28402,-7.6e-4 14.99936,-6.7161 15.00012,-15.00012 V 99.568917 c -7.6e-4,-8.284022 -6.7161,-14.999358 -15.00012,-15.00012 H 466.7264 c -1.95827,0.130031 -3.872,0.643052 -5.63273,1.50999 h -33.90801 l -0.17208,-10.27534 v -0.008 c -0.11786,-10.6965 -5.54557,-17.36887 -16.07034,-19.51354 -1.51739,-0.30938 -3.02093,-0.43177 -4.43952,-0.40617 h -0.004 c -6.6e-4,10e-6 -0.001,-1e-5 -0.002,0 -6.34042,0.11653 -11.82814,3.05875 -15.54479,7.45277 -0.058,0.06856 -0.11534,0.137633 -0.17208,0.20722 l -0.0408,0.0507 c -0.0554,0.06721 -0.11014,0.134911 -0.16433,0.20308 l -3.42356,4.34961 c -1.79739,-0.894418 -3.75603,-1.418958 -5.75986,-1.54254 h -81.56091 c -5.48531,0.04366 -10.50941,3.077781 -13.10153,7.91218 l -1.36115,-0.38913 9.43766,-19.02933 c 4.94185,-9.970014 -2.30984,-21.661178 -13.43742,-21.66379 h -25.20518 c -2.69339,-3.114927 -6.5488,-4.985733 -10.6624,-5.17384 h -13.59348 c -1.13869,0.16895 -2.25415,0.468404 -3.32435,0.89245 -2.49646,-1.994789 -5.56468,-3.14028 -8.7576,-3.26957 z m -12.20649,14.93087 h 12.0835 v 10.57093 h -0.0393 c -0.16047,-0.14169 -0.34696,-0.25119 -0.51728,-0.38137 0.23698,0.18108 0.47122,0.36474 0.68885,0.56792 -0.0612,-0.0572 -0.10724,-0.12902 -0.17002,-0.18448 h 12.11968 v 13.59297 h -12.12123 c 0.0618,-0.0546 0.10717,-0.12518 0.16744,-0.18139 -1.61719,1.50807 -3.77376,2.44688 -6.16965,2.44688 -2.39418,0 -4.54921,-0.93815 -6.16604,-2.44429 0.0593,0.0553 0.10354,0.12513 0.16434,0.1788 h -12.12278 v 11.44064 h 36.24843 v -33.22794 h 13.59349 v 8.19433 h 9.33896 v -3.02256 h 26.52913 l -9.74049,19.63602 h -16.78864 v -3.02049 h -9.33896 v 11.44064 8.89093 h 26.38857 v 35.806603 c -0.0272,7.15646 -7.33661,1.87217 -7.55199,11.02052 v 12.11812 l 3.02048,1.12552 v 5.8384 l -5.40742,0.9896 c -0.0346,12.37574 0.53725,16.14342 4.23695,25.49457 l -40.43991,10.40815 c -3.29486,-11.19056 -5.01325,-18.66398 -4.60282,-28.43289 l -4.62865,0.84698 0.001,0.0129 -38.27053,-0.0129 -22.03484,37.6592 c -1.34935,2.07376 0.58081,4.78666 1.1958,5.24826 1.90756,2.00012 -0.47289,6.95255 -5.77329,5.50509 l -28.6365,-6.64766 c -3.75326,-0.95942 -3.8407,-4.93898 -2.55695,-6.74998 l 30.63172,-44.18851 c 3.38102,-5.02397 2.90035,-8.31869 3.00861,-11.36727 l -5.2e-4,-5.1e-4 c 0.15466,-6.1674 -4.12577,-8.57384 -9.8888,-8.63875 h -7.47913 v -12.20391 h -9.06147 v 5.2e-4 h -20.39147 v 10.57248 h 5.2e-4 v 13.59348 H 78.967621 l -23.18153,13.59297 v -19.33267 l 14.5929,-6.07043 -14.59342,6.06992 v 7.53649 l -3.07526,1.22421 c -0.12475,0.17236 -23.41046,35.45468 -23.41046,35.45468 -1.25472,1.2762 -4.11197,0.72356 -4.49068,-0.91622 -5.93704,-25.4496 -12.10886,-76.88189 -8.72454,-85.890883 H 127.529 v 24.165453 h 5.1e-4 V 94.969637 h 9.06147 l 17.36845,-9.66608 h 11.37036 v -8.89093 h 16.61397 v -11.44064 h -17.41134 v 3.02049 h -30.96245 v -19.63602 h 30.96245 v 3.02256 h 17.41134 v -8.19433 h 13.59349 v 8.19433 h 12.11967 c -0.0634,0.056 -0.10975,0.12879 -0.17156,0.18655 0.21652,-0.20229 0.45004,-0.38494 0.68575,-0.56534 -0.16816,0.12873 -0.35256,0.23677 -0.51108,0.37672 h -0.0403 z m 0.55139,10.19421 c 0.19839,-0.15189 0.39214,-0.30903 0.60306,-0.44442 -0.21161,0.13565 -0.40407,0.29211 -0.60306,0.44442 z m 0.60306,-0.44442 c 0.27248,-0.17467 0.5647,-0.3183 0.85628,-0.46353 -0.29198,0.14563 -0.58344,0.28841 -0.85628,0.46353 z m 0.85628,-0.46353 c 0.20987,-0.10469 0.41212,-0.22207 0.63097,-0.31058 -0.21951,0.0886 -0.42049,0.20573 -0.63097,0.31058 z m 0.63097,-0.31058 c 0.34681,-0.13994 0.71371,-0.23699 1.08055,-0.33383 -0.36724,0.0972 -0.73341,0.19342 -1.08055,0.33383 z m 1.08055,-0.33383 c 0.1874,-0.0496 0.36556,-0.12041 0.55759,-0.15813 -0.19234,0.0377 -0.36988,0.10858 -0.55759,0.15813 z m 0.55759,-0.15813 c 0.57034,-0.11167 1.15816,-0.17673 1.76217,-0.17673 0.60452,0 1.1924,0.0649 1.7632,0.17673 -0.57073,-0.1121 -1.15807,-0.17777 -1.76269,-0.17777 -0.60438,0 -1.1921,0.0657 -1.76268,0.17777 z m 3.52537,0 c 0.18677,0.0367 0.3602,0.10556 0.5426,0.15348 -0.18273,-0.0479 -0.35548,-0.11681 -0.5426,-0.15348 z m 0.5426,0.15348 c 0.37307,0.0978 0.74573,0.19713 1.09812,0.33951 -0.35265,-0.14275 -0.72473,-0.24141 -1.09812,-0.33951 z m 1.09812,0.33951 c 0.21368,0.0865 0.41086,0.20141 0.61599,0.30334 -0.20562,-0.10205 -0.40178,-0.21678 -0.61599,-0.30334 z m 0.61599,0.30334 c 0.2963,0.14707 0.59308,0.29334 0.86971,0.47078 -0.27712,-0.17797 -0.57287,-0.32327 -0.86971,-0.47078 z m 0.86971,0.47078 c 0.20818,0.13369 0.39932,0.28893 0.59531,0.43873 -0.19658,-0.15021 -0.38644,-0.30476 -0.59531,-0.43873 z m -11.06599,1.00872 c -0.26366,0.24633 -0.4976,0.51708 -0.73019,0.79323 0.23208,-0.27535 0.46725,-0.54751 0.73019,-0.79323 z m -0.73019,0.79323 c -0.15837,0.1879 -0.32377,0.3658 -0.46664,0.56638 0.14232,-0.19986 0.30892,-0.37912 0.46664,-0.56638 z m -0.46664,0.56638 c -0.21529,0.30233 -0.39099,0.62899 -0.56844,0.95756 0.17721,-0.32778 0.35357,-0.65589 0.56844,-0.95756 z m -0.56844,0.95756 c -0.11317,0.20933 -0.24171,0.40634 -0.33848,0.62529 0.0965,-0.21839 0.2257,-0.41647 0.33848,-0.62529 z m -0.33848,0.62529 c -0.16425,0.37185 -0.27687,0.7673 -0.39067,1.16375 0.11378,-0.39589 0.22654,-0.7924 0.39067,-1.16375 z m -0.39067,1.16375 c -0.0582,0.20246 -0.1418,0.39238 -0.18604,0.60048 0.0441,-0.20775 0.12801,-0.39835 0.18604,-0.60048 z m -0.18604,0.60048 c -0.12617,0.5939 -0.19509,1.20867 -0.19947,1.8402 0.004,-0.63127 0.0733,-1.2466 0.19947,-1.8402 z m -0.19947,1.8402 c -1.5e-4,0.0216 -0.007,0.0414 -0.007,0.063 0,0.021 0.007,0.0401 0.007,0.061 -1.4e-4,-0.0209 -0.006,-0.0401 -0.006,-0.061 0,-0.0216 0.006,-0.0415 0.006,-0.063 z m 0,0.12402 c 0.004,0.63324 0.0738,1.24944 0.20051,1.84485 -0.12685,-0.59509 -0.19624,-1.21168 -0.20051,-1.84485 z m 0.20051,1.84485 c 0.0425,0.19944 0.12242,0.38143 0.17776,0.57568 -0.0551,-0.19399 -0.13539,-0.37654 -0.17776,-0.57568 z m 0.17776,0.57568 c 0.11537,0.40583 0.23183,0.80944 0.39998,1.18959 -0.16813,-0.3795 -0.28454,-0.78444 -0.39998,-1.18959 z m 0.39998,1.18959 c 0.0928,0.20955 0.21611,0.39819 0.32401,0.59893 -0.10743,-0.20028 -0.23155,-0.38989 -0.32401,-0.59893 z m 0.32401,0.59893 c 0.1823,0.33985 0.36489,0.67666 0.58756,0.98857 -0.22237,-0.31115 -0.40538,-0.64962 -0.58756,-0.98857 z m 0.58756,0.98857 c 0.13549,0.18958 0.29245,0.35763 0.44183,0.53588 -0.14875,-0.17775 -0.30688,-0.34685 -0.44183,-0.53588 z m 0.44183,0.53588 c 0.24066,0.28756 0.48442,0.56779 0.75861,0.82321 -0.27343,-0.25471 -0.51845,-0.53664 -0.75861,-0.82321 z m 38.64209,1.00201 v -13.59297 h -5.2e-4 v 13.59297 z m -25.54779,-0.18139 c 0.27074,-0.25247 0.51076,-0.53005 0.74879,-0.8139 -0.2375,0.28293 -0.47879,0.5621 -0.74879,0.8139 z m 0.74879,-0.8139 c 0.15198,-0.18106 0.31144,-0.3519 0.44906,-0.54467 -0.1371,0.19217 -0.29769,0.36416 -0.44906,0.54467 z m 0.44906,-0.54467 c 0.22142,-0.31034 0.403,-0.64541 0.58447,-0.9834 -0.18128,0.33716 -0.3634,0.67376 -0.58447,0.9834 z m 0.58447,-0.9834 c 0.10846,-0.20175 0.2323,-0.39139 0.32556,-0.60203 -0.0929,0.2101 -0.21751,0.40077 -0.32556,0.60203 z m 0.32556,-0.60203 c 0.16815,-0.38015 0.2846,-0.78376 0.39997,-1.18959 -0.11534,0.40515 -0.23196,0.81008 -0.39997,1.18959 z m 0.39997,-1.18959 c 0.0553,-0.19425 0.13529,-0.37625 0.17777,-0.57568 -0.0424,0.19914 -0.12262,0.38169 -0.17777,0.57568 z m 0.17777,-0.57568 c 0.13086,-0.61504 0.20671,-1.25065 0.20671,-1.90583 0,0.65512 -0.0758,1.29108 -0.20671,1.90583 z m 0.20671,-1.90583 c 0,-0.65517 -0.0758,-1.29079 -0.20671,-1.90582 0.13086,0.61471 0.20671,1.2509 0.20671,1.90582 z m -0.20671,-1.90582 c -0.0427,-0.20053 -0.12315,-0.38349 -0.1788,-0.57878 0.0555,0.19496 0.13621,0.37861 0.1788,0.57878 z m -0.1788,-0.57878 c -0.11505,-0.40419 -0.23049,-0.80675 -0.39791,-1.18546 0.16729,0.37822 0.28289,0.78181 0.39791,1.18546 z m -0.39791,-1.18546 c -0.0949,-0.21462 -0.22158,-0.40749 -0.33228,-0.61288 0.11034,0.2049 0.23763,0.39879 0.33228,0.61288 z m -0.33228,-0.61288 c -0.17923,-0.33284 -0.35714,-0.66348 -0.57516,-0.96945 0.21759,0.30531 0.39619,0.6374 0.57516,0.96945 z m -0.57516,-0.96945 c -0.14098,-0.19782 -0.30436,-0.37314 -0.46043,-0.55862 0.15544,0.18485 0.31998,0.36151 0.46043,0.55862 z m -0.46043,-0.55862 c -0.23459,-0.27898 -0.47065,-0.55239 -0.73691,-0.80099 0.26553,0.24798 0.50284,0.52282 0.73691,0.80099 z m 186.08063,18.4397 c 0.3879,-0.007 0.77952,0.0263 1.17202,0.10645 2.0938,0.42666 4.04233,2.70048 4.06693,4.98575 l 0.34003,20.20548 v 4.908743 h 54.37291 v -1.510503 h 24.16597 V 113.0936 h -24.16597 v -1.5105 h -54.37291 v 4.90874 h -30.96245 v 4.90874 h -90.62186 l -10.57248,3.02101 v -3.776 h -8.30698 V 91.948637 h 8.30698 v -3.776 l 10.57248,3.02049 h 9.06198 v -9.66608 h 81.55988 v 9.66608 4.90874 h 2.93006 c 0.1203,-0.26984 0.27273,-0.52404 0.45423,-0.75706 l 17.58756,-22.34696 0.0419,-0.0517 c 1.0981,-1.29823 2.68916,-2.11126 4.36976,-2.14199 z m -3.89331,15.46417 -7.42797,9.83351 h 7.61039 z m -78.88407,35.341513 h 27.18645 v 10.57249 h -27.18645 z m -293.315949,5.92677 c -2.09173,0 -3.776,1.68426 -3.776,3.776 0,2.09174 1.68427,3.776 3.776,3.776 h 5.0555 c -0.45249,-1.17559 -0.74827,-2.41453 -0.74827,-3.70727 0,-1.34241 0.30889,-2.63043 0.79478,-3.84473 z m 10.55233,0 c 0.48588,1.21429 0.79426,2.50233 0.79426,3.84473 0,1.22687 -0.34779,2.38551 -0.75396,3.51348 l 0.66405,-0.26355 c -0.04859,0.1517 -0.09476,0.30417 -0.1385,0.45734 h 4.2907 c 2.09176,0 3.77599,-1.68426 3.77599,-3.776 0,-2.09174 -1.68423,-3.776 -3.77599,-3.776 z m 290.025709,5.01934 h 12.68708 c 2.2536,13.31226 2.2416,40.68738 0,54.3729 h -12.68708 c -2.2745,-13.75306 -2.2805,-40.90762 0,-54.3729 z m -144.28835,43.03251 h 0.0961 c -0.0801,0.004 -0.0342,0.002 -0.0977,0.006 z m 78.16732,3.03341 c 1.75249,0.21855 3.28306,1.45707 3.79408,3.26905 0.68138,2.41598 -0.71509,4.90949 -3.13107,5.59087 l -34.88779,9.8392 c -2.41598,0.68137 -4.90951,-0.71511 -5.59088,-3.13108 -0.68138,-2.41599 0.7151,-4.9095 3.13108,-5.59087 l 34.88779,-9.8392 c 0.604,-0.17034 1.21263,-0.21082 1.79679,-0.13797 z m -98.60483,12.87673 c 2.41456,1.81232 2.28227,2.11953 2.61947,2.62671 -0.27164,-0.32429 -0.46533,-0.6651 -0.76791,-0.98236 -0.57082,-0.59821 -1.19011,-1.1482 -1.85156,-1.64435 z"
           sodipodi:nodetypes="cccccccccccccsscsccsccccccccccsccccscccccccsccscccccccccccccccccccccccccccccccsscscccccccccccccccccccccccccccscccccccccccccccccccccccccccccccccccccccccccccccccccccccccccccccccccccccccccccccccccccccccccccccccccscsccccccccccccccccccccccccccccccccccccccscscccccccccccccccccccccccccccccccccccccccccccccccccccccccccccccccccccccscccccccccccccccccccccccccccccccsscccccccccssscscscscccsssccccccccccssccsccscccc" /><g
           id="g10"
           transform="translate(-0.02644583,16.362598)"><g
             id="g4"
             transform="rotate(2.9346295,2790.298,75.472699)"><rect
               style="fill:#828282;fill-opacity:1;stroke:#333333;stroke-width:7;stroke-linecap:round;stroke-dasharray:none;stroke-opacity:1"
               id="rect5-5"
               width="45.310951"
               height="9.062191"
               x="-167.836"
               y="363.13019"
               ry="4.5310955"
               transform="matrix(-0.94729639,0.32035847,0.32035847,0.94729639,0,0)" /><path
               style="fill:#333333;fill-opacity:0.1;stroke:none;stroke-width:0.264583px;stroke-linecap:butt;stroke-linejoin:miter;stroke-opacity:1"
               d="m 229.55645,294.39855 41.7279,-13.9093 3.27279,9.61378 -42.54611,14.52295 z"
               id="path15"
               sodipodi:nodetypes="ccccc" /><path
               style="fill:#333333;fill-opacity:0.1;stroke:none;stroke-width:0.264583px;stroke-linecap:butt;stroke-linejoin:miter;stroke-opacity:1"
               d="m 233.23833,303.39869 7.9774,-2.65913 4.50006,12.88656 -9.00015,2.45458 z"
               id="path16" /><path
               style="fill:#333333;fill-opacity:0.1;stroke:none;stroke-width:0.264583px;stroke-linecap:butt;stroke-linejoin:miter;stroke-opacity:1"
               d="m 278.62669,304.21797 -7.9774,2.65913 -4.50006,-12.88656 9.00015,-2.45458 z"
               id="path16-7" /></g><path
             style="fill:#b89a80;fill-opacity:1;stroke:#333333;stroke-width:7;stroke-linecap:butt;stroke-linejoin:round;stroke-dasharray:none;stroke-opacity:1"
             d="m 178.17051,144.17358 -22.03523,37.65926 c -1.34936,2.07376 0.58056,4.78689 1.19555,5.24849 1.90756,2.00013 -0.47302,6.95246 -5.77343,5.50499 l -28.63619,-6.64768 c -3.75326,-0.95942 -3.84056,-4.93896 -2.55681,-6.74996 l 30.63153,-44.18824 c 3.38102,-5.02397 2.90048,-8.31892 3.00874,-11.3675 h 24.16584 z"
             id="path1-7-3"
             sodipodi:nodetypes="cccccccccc" /><path
             id="path3-3"
             style="fill:#b89a80;fill-opacity:1;stroke:#333333;stroke-width:7;stroke-linecap:butt;stroke-linejoin:round;stroke-dasharray:none;stroke-opacity:1"
             d="m 154.00464,68.958292 -17.36844,9.666077 v 36.369361 h 7.47861 c 5.76303,0.0649 10.04398,2.47135 9.88932,8.63874 h 24.16596 v 20.54139 h 8.06308 v -0.0155 h 30.20694 v 0.0155 l 0.0847,-0.0155 h 0.98443 V 143.978 l 49.77216,-9.11055 v -5.83841 l -3.02049,-1.12551 v -12.11812 c 0.21538,-9.14835 7.5248,-3.86406 7.552,-11.02052 V 68.958292 Z m 62.43547,75.215568 h -5.2e-4 -8.56227 c 2.75536,0 8.56279,0.0129 8.56279,0.0129 z m -30.20694,0 v 0.0129 c 0.25012,-0.0139 5.08146,-0.0129 8.56278,-0.0129 z m 9.75311,-26.81837 h 13.08137 c 4.74403,0 8.56227,3.81981 8.56227,8.56382 v 8.71094 h -30.20694 v -8.71094 c 0,-4.74401 3.81928,-8.56382 8.5633,-8.56382 z"
             sodipodi:nodetypes="ccccccccccccccccccccccccccccccsssccss" /><path
             style="fill:#828282;fill-opacity:1;stroke:#333333;stroke-width:7;stroke-linecap:butt;stroke-linejoin:round;stroke-dasharray:none;stroke-opacity:1"
             d="m 261.8741,135.85707 c -0.0346,12.37575 0.5369,16.14348 4.23661,25.49464 l -40.43996,10.40828 c -3.29487,-11.19057 -5.01316,-18.66437 -4.60273,-28.43329 z"
             id="path4-8"
             sodipodi:nodetypes="ccccc" /><path
             style="fill:none;stroke:#333333;stroke-width:7;stroke-linecap:round;stroke-dasharray:none;stroke-opacity:0.4"
             d="m 248.97256,139.23965 c -0.49373,5.16314 -0.12523,13.32669 2.55036,17.60731"
             id="path5-4"
             sodipodi:nodetypes="cc" /><path
             style="fill:none;stroke:#333333;stroke-width:7;stroke-linecap:round;stroke-dasharray:none;stroke-opacity:0.4"
             d="m 233.65046,143.75448 c -0.50805,6.08869 -0.23884,11.46362 2.20907,17.0956"
             id="path5-4-6"
             sodipodi:nodetypes="cc" /><rect
             style="fill:#828282;fill-opacity:1;stroke:#333333;stroke-width:7;stroke-linecap:round;stroke-linejoin:round;stroke-dasharray:none;stroke-opacity:1"
             id="rect6-2"
             width="135.17682"
             height="15.726109"
             x="-271.81308"
             y="78.624222"
             ry="0"
             transform="scale(-1,1)" /><rect
             style="fill:#6c6c6c;fill-opacity:1;stroke:#333333;stroke-width:7;stroke-linecap:round;stroke-linejoin:round;stroke-dasharray:none;stroke-opacity:1"
             id="rect8-7"
             width="36.248764"
             height="15.725921"
             x="-235.56442"
             y="78.624222"
             transform="scale(-1,1)" /><path
             id="path5-7-9"
             style="fill:#828282;fill-opacity:1;stroke:#333333;stroke-width:7;stroke-linecap:round;stroke-linejoin:round;stroke-dasharray:none;stroke-opacity:1"
             d="m 169.00559,103.53817 14.34995,0.0451 -10.6176,9.3844 -0.003,-0.0115 a 5.4534297,5.4534297 0 0 1 -3.72782,1.4891 5.4534297,5.4534297 0 0 1 -5.45366,-5.45366 5.4534297,5.4534297 0 0 1 5.45366,-5.45366 z" /><circle
             style="fill:#828282;fill-opacity:1;stroke:#333333;stroke-width:7;stroke-linecap:round;stroke-linejoin:round;stroke-dasharray:none;stroke-opacity:1"
             id="path9-8"
             cx="-232.71225"
             cy="114.80193"
             r="6.0414605"
             transform="scale(-1,1)" /><rect
             style="fill:#828282;fill-opacity:1;stroke:#333333;stroke-width:7;stroke-linecap:round;stroke-linejoin:round;stroke-dasharray:none;stroke-opacity:1"
             id="rect9-7"
             width="8.3070078"
             height="28.696938"
             x="-280.12009"
             y="75.603317"
             transform="scale(-1,1)" /><rect
             style="fill:#828282;fill-opacity:1;stroke:#333333;stroke-width:7;stroke-linecap:round;stroke-linejoin:round;stroke-dasharray:none;stroke-opacity:1"
             id="rect10-5"
             width="9.062191"
             height="24.165842"
             x="-136.6362"
             y="78.624222"
             transform="scale(-1,1)" /><path
             id="path11-8"
             style="fill:#b89a80;fill-opacity:1;stroke:#333333;stroke-width:7;stroke-linecap:butt;stroke-linejoin:round;stroke-dasharray:none;stroke-opacity:1"
             d="m 127.57455,78.624217 v 24.165923 h -20.39141 v 10.57269 H 74.71111 l -18.88038,7.85342 v 7.53654 l -3.07517,1.22383 c -0.12475,0.17236 -23.41041,35.45512 -23.41041,35.45512 -1.25472,1.2762 -4.1123,0.72347 -4.49101,-0.91631 C 18.9171,139.0658 12.74536,87.633216 16.12969,78.624216 Z M 46.01357,111.19148 H 30.60488 c -2.09173,0 -3.77606,1.68433 -3.77606,3.77607 0,2.09174 1.68433,3.77607 3.77606,3.77607 h 15.40869 c 2.09176,0 3.77609,-1.68433 3.77609,-3.77607 0,-2.09174 -1.68433,-3.77607 -3.77609,-3.77607 z"
             sodipodi:nodetypes="ccccccccccccsssssss" /><path
             style="fill:none;stroke:#333333;stroke-width:7;stroke-linecap:square;stroke-linejoin:miter;stroke-dasharray:none;stroke-opacity:1"
             d="M 107.18335,102.7899 H 18.07181"
             id="path13-4"
             sodipodi:nodetypes="cc" /><path
             style="fill:#828282;fill-opacity:1;stroke:#333333;stroke-width:7;stroke-linecap:butt;stroke-linejoin:round;stroke-dasharray:none;stroke-opacity:1"
             d="M 107.18356,113.36283 H 74.71072 l -18.87957,7.8539 v 19.33268 L 79.0126,126.95612 h 28.17096 z"
             id="path14-2-2"
             sodipodi:nodetypes="ccccccc" /><path
             id="rect117-5"
             style="fill:#828282;fill-opacity:1;stroke:#333333;stroke-width:7;stroke-linecap:square;stroke-linejoin:round;stroke-dasharray:none"
             d="m 290.69263,74.848137 -10.57259,-3.02073 v 36.248773 l 10.57259,-3.02073 z"
             sodipodi:nodetypes="ccccc" /><rect
             style="fill:#b89a80;fill-opacity:1;stroke:#333333;stroke-width:7;stroke-linecap:square;stroke-linejoin:round;stroke-dasharray:none;stroke-opacity:1"
             id="rect118-0"
             width="90.621902"
             height="30.207302"
             x="-381.31467"
             y="74.848129"
             transform="scale(-1,1)" /><rect
             style="fill:#828282;fill-opacity:1;stroke:#333333;stroke-width:7;stroke-linecap:square;stroke-linejoin:round;stroke-dasharray:none;stroke-opacity:1"
             id="rect119-7"
             width="81.559715"
             height="9.666337"
             x="-381.31467"
             y="65.181808"
             transform="scale(-1,1)" /><rect
             style="fill:#828282;fill-opacity:1;stroke:#333333;stroke-width:7;stroke-linecap:square;stroke-linejoin:round;stroke-dasharray:none;stroke-opacity:1"
             id="rect120-2"
             width="54.373142"
             height="10.572556"
             x="-466.65024"
             y="84.665512"
             ry="0"
             transform="scale(-1,1)" /><rect
             style="fill:#828282;fill-opacity:1;stroke:#333333;stroke-width:7;stroke-linecap:square;stroke-linejoin:round;stroke-dasharray:none;stroke-opacity:1"
             id="rect121-3"
             width="24.165842"
             height="13.593286"
             x="-490.81613"
             y="83.155136"
             transform="scale(-1,1)" /><rect
             style="fill:#b89a80;fill-opacity:1;stroke:#333333;stroke-width:7;stroke-linecap:round;stroke-linejoin:round;stroke-dasharray:none;stroke-opacity:1"
             id="rect122-9"
             width="30.962484"
             height="20.389927"
             x="-412.27707"
             y="79.756821"
             transform="scale(-1,1)" /><path
             id="path122-1-0"
             style="color:#000000;fill:#828282;fill-opacity:1;stroke:#333333;stroke-width:7;stroke-linecap:round;stroke-linejoin:round;stroke-dasharray:none;stroke-opacity:1"
             d="m 406.69803,54.459166 c 0.3879,-0.007 0.7798,0.026 1.1723,0.10615 2.0938,0.42666 4.0419,2.70059 4.0665,4.98586 l 0.3403,20.20565 h -9.2897 l -0.1828,-9.83374 -7.4276,9.83374 h -11.1326 c 0.1203,-0.26984 0.2728,-0.52407 0.4543,-0.75709 l 17.5878,-22.34735 0.042,-0.0515 c 1.0981,-1.29823 2.6887,-2.11098 4.3693,-2.14171 z"
             sodipodi:nodetypes="sccccccccccss" /><path
             id="rect15-0-3"
             style="fill:#828282;fill-opacity:1;stroke:#333333;stroke-width:7;stroke-linecap:round;stroke-linejoin:round;stroke-dasharray:none;stroke-opacity:1"
             d="m 219.74818,24.460836 v 10.571131 h -0.039 c -1.59646,-1.4096 -3.69517,-2.26502 -6.00207,-2.26502 -2.30663,0 -4.40571,0.85575 -6.00207,2.26502 h -0.0405 v -10.57113 z" /><rect
             style="fill:#828282;fill-opacity:1;stroke:#333333;stroke-width:7;stroke-linecap:round;stroke-linejoin:round;stroke-dasharray:none"
             id="rect1-8"
             width="80.049347"
             height="8.8912382"
             x="-245.42416"
             y="60.067242"
             transform="scale(-1,1)" /><path
             id="path14-3"
             style="fill:#828282;fill-opacity:1;stroke:#333333;stroke-width:7;stroke-linecap:butt;stroke-linejoin:round;stroke-dasharray:none;stroke-opacity:1"
             d="m 281.29238,32.011416 -9.74068,19.63589 h -16.78861 v -3.02055 h -9.33949 v -13.59323 h 9.33949 v -3.02211 z m -116.71482,0 v 3.02211 h 17.41143 v 13.59323 h -17.41143 v 3.02055 h -30.96255 v -19.63589 z m 67.25278,3.02211 v 13.59323 h -12.12119 c 1.8778,-1.65805 3.05957,-4.08308 3.05957,-6.79661 0,-2.71274 -1.18116,-5.13861 -3.05803,-6.79662 z m -24.12844,0 c -1.87672,1.65801 -3.05801,4.084 -3.05801,6.79662 0,2.71383 1.18292,5.13855 3.06112,6.79661 h -12.12277 v -13.59323 z" /><rect
             style="fill:#6f6f6f;fill-opacity:1;stroke:#333333;stroke-width:7;stroke-linecap:round;stroke-linejoin:round;stroke-dasharray:none;stroke-opacity:1"
             id="rect14-1"
             width="13.593286"
             height="33.228031"
             x="-245.42416"
             y="26.839212"
             transform="scale(-1,1)" /><rect
             style="fill:#6f6f6f;fill-opacity:1;stroke:#333333;stroke-width:7;stroke-linecap:round;stroke-linejoin:round;stroke-dasharray:none;stroke-opacity:1"
             id="rect14-4-0"
             width="13.593286"
             height="33.228031"
             x="-195.58212"
             y="26.839212"
             transform="scale(-1,1)" /><rect
             style="fill:#6f6f6f;fill-opacity:1;stroke:#333333;stroke-width:7;stroke-linecap:round;stroke-linejoin:round;stroke-dasharray:none;stroke-opacity:1"
             id="rect15-08"
             width="18.124382"
             height="18.124382"
             x="-222.76871"
             y="32.767162"
             ry="9.062191"
             transform="scale(-1,1)" /><rect
             style="fill:#828282;fill-opacity:1;stroke:#333333;stroke-width:7;stroke-linecap:round;stroke-linejoin:round;stroke-dasharray:none;stroke-opacity:1"
             id="rect16-0"
             width="27.186571"
             height="10.572556"
             x="-351.10727"
             y="105.26482"
             transform="scale(-1,1)" /><path
             id="rect17-0-4"
             style="fill:#b89a80;fill-opacity:1;stroke:#333333;stroke-width:7;stroke-linecap:round;stroke-linejoin:round;stroke-dasharray:none"
             d="m 343.86963,116.21062 h -12.687 c -2.2805,13.4653 -2.2745,40.62007 0,54.37315 h 12.687 c 2.2416,-13.68554 2.2536,-41.06087 0,-54.37315 z"
             sodipodi:nodetypes="ccccc" /><path
             id="rect17-0-4-1"
             style="fill:#828282;fill-opacity:1;stroke:#333333;stroke-width:7.00008;stroke-linecap:round;stroke-linejoin:round;stroke-dasharray:none"
             d="m 330.10733,159.79944 c 0.2772,4.0607 0.6572,7.77474 1.1524,10.79831 h 12.6871 c 0.5021,-3.0362 0.8871,-6.74728 1.1679,-10.79831 z" /><circle
             style="fill:#828282;fill-opacity:1;stroke:#333333;stroke-width:7;stroke-linecap:round;stroke-linejoin:round;stroke-dasharray:none;stroke-opacity:1"
             id="path9-3-0"
             cx="-318.34647"
             cy="90.05648"
             r="6.0414605"
             transform="scale(-1,1)" /><rect
             style="opacity:0.8;fill:#333333;fill-opacity:0.15;stroke-width:4;stroke-linecap:round;stroke-dasharray:none"
             id="rect7"
             width="111.44315"
             height="24.166565"
             x="16.129665"
             y="78.624222" /><path
             style="fill:#333333;fill-opacity:0.1;stroke:none;stroke-width:0.264583px;stroke-linecap:butt;stroke-linejoin:miter;stroke-opacity:1"
             d="m 123.433,174.8878 37.28608,6.62391 -2.41392,14.80225 -38.14847,-12.39458 z"
             id="path7" /><rect
             style="opacity:0.8;fill:#333333;fill-opacity:0.1;stroke:none;stroke-width:4;stroke-linecap:round;stroke-dasharray:none;stroke-opacity:0.4"
             id="rect9"
             width="14.862675"
             height="24.180367"
             x="112.71017"
             y="78.624222" /><path
             style="fill:#333333;fill-opacity:0.1;stroke:none;stroke-width:0.264583px;stroke-linecap:butt;stroke-linejoin:miter;stroke-opacity:1"
             d="m 28.57233,78.624219 c -5.88254,32.608981 6.68454,77.982011 6.68454,77.982011 L 24.4724,170.74754 12.52908,75.124217 Z"
             id="path9"
             sodipodi:nodetypes="ccccc" /><rect
             style="opacity:0.8;fill:#333333;fill-opacity:0.1;stroke:none;stroke-width:4;stroke-linecap:round;stroke-dasharray:none;stroke-opacity:0.4"
             id="rect10"
             width="9.3629837"
             height="20.094995"
             x="55.907925"
             y="117.28979" /><rect
             style="opacity:0.8;fill:#333333;fill-opacity:0.1;stroke:none;stroke-width:4;stroke-linecap:round;stroke-dasharray:none;stroke-opacity:0.4"
             id="rect11"
             width="10.275352"
             height="24.532696"
             x="96.985008"
             y="102.80458" /><rect
             style="opacity:0.8;fill:#333333;fill-opacity:0.1;stroke:none;stroke-width:4;stroke-linecap:round;stroke-dasharray:none;stroke-opacity:1"
             id="rect12"
             width="15.116412"
             height="15.711673"
             x="136.71341"
             y="78.638657" /><rect
             style="opacity:0.8;fill:#333333;fill-opacity:0.1;stroke:none;stroke-width:4;stroke-linecap:round;stroke-dasharray:none;stroke-opacity:1"
             id="rect12-6"
             width="15.116412"
             height="15.711673"
             x="184.69449"
             y="78.39238" /><rect
             style="opacity:0.8;fill:#333333;fill-opacity:0.1;stroke:none;stroke-width:4;stroke-linecap:round;stroke-dasharray:none;stroke-opacity:1"
             id="rect12-3"
             width="15.116412"
             height="15.711673"
             x="257.59811"
             y="78.631348" /><rect
             style="opacity:0.8;fill:#333333;fill-opacity:0.1;stroke:none;stroke-width:4;stroke-linecap:round;stroke-dasharray:none;stroke-opacity:1"
             id="rect12-4"
             width="15.116412"
             height="15.711673"
             x="235.56442"
             y="78.631348" /><rect
             style="opacity:0.8;fill:#333333;fill-opacity:0.1;stroke:none;stroke-width:4;stroke-linecap:round;stroke-dasharray:none;stroke-opacity:1"
             id="rect12-0"
             width="15.116412"
             height="15.711673"
             x="198.978"
             y="78.631439" /><rect
             style="opacity:0.8;fill:#333333;fill-opacity:0.1;stroke:none;stroke-width:4;stroke-linecap:round;stroke-dasharray:none;stroke-opacity:1"
             id="rect12-37"
             width="15.116412"
             height="15.711673"
             x="220.77267"
             y="78.631348" /><rect
             style="opacity:0.8;fill:#333333;fill-opacity:0.1;stroke:none;stroke-width:4;stroke-linecap:round;stroke-dasharray:none;stroke-opacity:1"
             id="rect13"
             width="135.17664"
             height="9.9499083"
             x="136.63626"
             y="94.350334" /><path
             style="fill:#333333;fill-opacity:0.1;stroke:none;stroke-width:0.264583px;stroke-linecap:butt;stroke-linejoin:miter;stroke-opacity:1"
             d="m 216.43946,132.19627 47.15042,-8.57495 2.44861,11.21211 -50.00342,10.05223 -37.88379,-0.72913 0.0192,-12.56211 z"
             id="path13"
             sodipodi:nodetypes="ccccccc" /><path
             style="fill:#333333;fill-opacity:0.1;stroke:none;stroke-width:0.264583px;stroke-linecap:butt;stroke-linejoin:miter;stroke-opacity:1"
             d="m 214.67728,144.4312 50.52351,-8.79559 -0.8182,10.43198 -49.09166,9.40923 z"
             id="path14"
             sodipodi:nodetypes="ccccc" /><path
             style="fill:#333333;fill-opacity:0.1;stroke:none;stroke-width:0.264583px;stroke-linecap:butt;stroke-linejoin:miter;stroke-opacity:1"
             d="m 280.19618,73.730344 10.49645,2.882053 v 5.523133 l -11.99224,-3.443835 z"
             id="path17" /><path
             style="fill:#333333;fill-opacity:0.1;stroke:none;stroke-width:0.264583px;stroke-linecap:butt;stroke-linejoin:miter;stroke-opacity:1"
             d="m 281.61583,105.54047 10.49645,-2.88206 v -5.523129 l -11.99224,3.443839 z"
             id="path17-8" /><rect
             style="opacity:0.8;fill:#333333;fill-opacity:0.1;stroke:none;stroke-width:4;stroke-linecap:round;stroke-dasharray:none;stroke-opacity:1"
             id="rect17"
             width="5.9858861"
             height="4.2934823"
             x="272.71451"
             y="78.631348" /><rect
             style="opacity:0.8;fill:#333333;fill-opacity:0.1;stroke:none;stroke-width:4;stroke-linecap:round;stroke-dasharray:none;stroke-opacity:1"
             id="rect18"
             width="5.8069768"
             height="6.4499125"
             x="273.42227"
             y="97.850334" /><rect
             style="opacity:0.8;fill:#333333;fill-opacity:0.1;stroke:none;stroke-width:4;stroke-linecap:round;stroke-dasharray:none;stroke-opacity:1"
             id="rect19"
             width="10.887325"
             height="30.206757"
             x="290.76889"
             y="74.862831" /><rect
             style="opacity:0.8;fill:#333333;fill-opacity:0.1;stroke:none;stroke-width:4.49497;stroke-linecap:round;stroke-dasharray:none;stroke-opacity:1"
             id="rect20"
             width="12.005946"
             height="46.453876"
             x="369.3085"
             y="65.181664" /><rect
             style="opacity:0.8;fill:#333333;fill-opacity:0.1;stroke:none;stroke-width:4;stroke-linecap:round;stroke-dasharray:none;stroke-opacity:1"
             id="rect21"
             width="15.57903"
             height="9.6811647"
             x="299.75516"
             y="65.181664" /><rect
             style="opacity:0.8;fill:#333333;fill-opacity:0.1;stroke:none;stroke-width:4;stroke-linecap:round;stroke-dasharray:none;stroke-opacity:1"
             id="rect22"
             width="8.77458"
             height="6.4645495"
             x="323.99796"
             y="106.965" /><rect
             style="opacity:0.8;fill:#333333;fill-opacity:0.1;stroke:none;stroke-width:4;stroke-linecap:round;stroke-dasharray:none;stroke-opacity:1"
             id="rect22-1"
             width="8.77458"
             height="6.4645495"
             x="341.99344"
             y="107.31882" /><rect
             style="opacity:0.8;fill:#333333;fill-opacity:0.1;stroke:none;stroke-width:4;stroke-linecap:round;stroke-dasharray:none;stroke-opacity:1"
             id="rect23"
             width="15.718673"
             height="8.7337551"
             x="329.22159"
             y="115.85173" /><rect
             style="opacity:0.8;fill:#333333;fill-opacity:0.1;stroke:none;stroke-width:4;stroke-linecap:round;stroke-dasharray:none;stroke-opacity:1"
             id="rect24"
             width="15.555167"
             height="7.3886847"
             x="329.9747"
             y="150.72525" /><rect
             style="opacity:0.8;fill:#333333;fill-opacity:0.1;stroke:none;stroke-width:4;stroke-linecap:round;stroke-dasharray:none;stroke-opacity:1"
             id="rect25"
             width="31.039539"
             height="18.507135"
             x="381.31467"
             y="81.653107" /><rect
             style="opacity:0.8;fill:#333333;fill-opacity:0.1;stroke:none;stroke-width:4;stroke-linecap:round;stroke-dasharray:none;stroke-opacity:1"
             id="rect26"
             width="9.0927429"
             height="22.473593"
             x="381.31442"
             y="79.756805" /><rect
             style="opacity:0.8;fill:#333333;fill-opacity:0.1;stroke:none;stroke-width:4;stroke-linecap:round;stroke-dasharray:none;stroke-opacity:1"
             id="rect27"
             width="9.0316019"
             height="20.403704"
             x="403.24527"
             y="79.756538" /><rect
             style="opacity:0.8;fill:#333333;fill-opacity:0.1;stroke:none;stroke-width:4;stroke-linecap:round;stroke-dasharray:none;stroke-opacity:1"
             id="rect28"
             width="10.527987"
             height="13.027367"
             x="412.35422"
             y="82.225067" /><rect
             style="opacity:0.8;fill:#333333;fill-opacity:0.1;stroke:none;stroke-width:4;stroke-linecap:round;stroke-dasharray:none;stroke-opacity:1"
             id="rect29"
             width="11.001622"
             height="17.093563"
             x="455.64816"
             y="83.154861" /><rect
             style="opacity:0.8;fill:#333333;fill-opacity:0.2;stroke:#333333;stroke-width:4;stroke-linecap:round;stroke-dasharray:none;stroke-opacity:1"
             id="rect30"
             width="24.165932"
             height="13.593225"
             x="466.72714"
             y="83.168694" /><rect
             style="opacity:0.8;fill:#333333;fill-opacity:0.1;stroke:none;stroke-width:4;stroke-linecap:round;stroke-dasharray:none;stroke-opacity:1"
             id="rect31"
             width="7.1943574"
             height="12.06833"
             x="466.72714"
             y="84.679756" /><rect
             style="opacity:0.8;fill:#333333;fill-opacity:0.1;stroke:none;stroke-width:4;stroke-linecap:round;stroke-dasharray:none;stroke-opacity:1"
             id="rect31-8"
             width="7.1943574"
             height="12.06833"
             x="483.62143"
             y="83.917305" /><rect
             style="fill:#333333;fill-opacity:0.1;stroke:none;stroke-width:4;stroke-linecap:round;stroke-dasharray:none;stroke-opacity:1"
             id="rect32"
             width="11.049758"
             height="8.8770638"
             x="165.45151"
             y="60.081402" /><rect
             style="fill:#333333;fill-opacity:0.1;stroke:none;stroke-width:4;stroke-linecap:round;stroke-dasharray:none;stroke-opacity:1"
             id="rect32-7"
             width="11.049758"
             height="8.8770638"
             x="233.53952"
             y="60.697231" /><rect
             style="fill:#333333;fill-opacity:0.1;stroke:none;stroke-width:4;stroke-linecap:round;stroke-dasharray:none;stroke-opacity:1"
             id="rect32-4"
             width="11.049758"
             height="8.8770638"
             x="260.00778"
             y="69.746971" /><rect
             style="fill:#333333;fill-opacity:0.1;stroke:none;stroke-width:4;stroke-linecap:round;stroke-dasharray:none;stroke-opacity:1"
             id="rect32-6"
             width="11.049758"
             height="8.8770638"
             x="149.55795"
             y="69.761589" /><rect
             style="fill:#333333;fill-opacity:0.1;stroke:none;stroke-width:4;stroke-linecap:round;stroke-dasharray:none;stroke-opacity:1"
             id="rect33"
             width="10.657641"
             height="20.756203"
             x="133.61398"
             y="32.011539" /><rect
             style="fill:#333333;fill-opacity:0.1;stroke:none;stroke-width:4;stroke-linecap:round;stroke-dasharray:none;stroke-opacity:1"
             id="rect34"
             width="9.5089779"
             height="15.524862"
             x="171.26163"
             y="35.49633" /><rect
             style="fill:#333333;fill-opacity:0.1;stroke:none;stroke-width:4;stroke-linecap:round;stroke-dasharray:none;stroke-opacity:1"
             id="rect35"
             width="7.9564919"
             height="15.136741"
             x="246.94534"
             y="34.137905" /><path
             style="fill:#333333;fill-opacity:0.1;stroke:none;stroke-width:0.264583px;stroke-linecap:butt;stroke-linejoin:miter;stroke-opacity:1"
             d="m 263.05238,49.662767 9.70303,-20.182321 9.31492,0.776246 -10.67334,21.928867 z"
             id="path35" /><rect
             style="fill:#333333;fill-opacity:0.1;stroke:none;stroke-width:4;stroke-linecap:round;stroke-dasharray:none;stroke-opacity:1"
             id="rect36"
             width="11.449586"
             height="8.5386744"
             x="182.71121"
             y="27.345776" /><rect
             style="fill:#333333;fill-opacity:0.1;stroke:none;stroke-width:4;stroke-linecap:round;stroke-dasharray:none;stroke-opacity:1"
             id="rect37"
             width="12.031768"
             height="8.926796"
             x="182.71121"
             y="50.633072" /><rect
             style="fill:#333333;fill-opacity:0.1;stroke:none;stroke-width:4;stroke-linecap:round;stroke-dasharray:none;stroke-opacity:1"
             id="rect38"
             width="12.41989"
             height="7.5683703"
             x="232.7789"
             y="27.927959" /><rect
             style="fill:#333333;fill-opacity:0.1;stroke:none;stroke-width:4;stroke-linecap:round;stroke-dasharray:none;stroke-opacity:1"
             id="rect39"
             width="12.225829"
             height="6.7921271"
             x="232.7789"
             y="51.215256" /><path
             id="rect8607-4"
             style="fill:#333333;fill-opacity:0.15;fill-rule:evenodd;stroke:#333333;stroke-width:0;stroke-linecap:round;stroke-linejoin:round;stroke-dashoffset:188.976"
             d="m 162.54476,137.90692 4.54191,3.06705 c 1.69199,1.14255 2.14728,3.43318 1.02084,5.13594 l -17.35356,26.23198 c -1.12644,1.70274 -3.39543,2.15373 -5.08742,1.01117 l -4.54192,-3.06704 c -1.69198,-1.14256 -2.14728,-3.43318 -1.02083,-5.13594 l 17.35356,-26.23198 c 1.12645,-1.70274 3.39542,-2.15373 5.08742,-1.01118 z" /></g><text
           xml:space="preserve"
           transform="matrix(0.19290879,0,-0.05646511,0.19245304,184.93471,148.14927)"
           id="text1"
           style="font-style:normal;font-weight:normal;font-size:33.3333px;line-height:1.25;font-family:sans-serif;white-space:pre;shape-inside:url(#rect1-0-3);display:inline;fill:#333333;fill-opacity:0.2;stroke:none;stroke-width:1.45107"><tspan
             x="0"
             y="-147.56558"
             id="tspan3"><tspan
               style="font-family:'Bebas Neue';-inkscape-font-specification:'Bebas Neue'"
               id="tspan2">RkT Mk18                   5.56&#10;</tspan></tspan></text></g></g></g></svg>
